/* XPM */
static char *_665e1c7f5cd4baac3553544f046b2d7OaChHfBOxG9v8Enb[] = {
/* columns rows colors chars-per-pixel */
"100 100 7 1 ",
"  c None",
". c black",
"X c #21111B",
"o c #22121B",
"O c #28131E",
"+ c #04356E",
"@ c #B76B49",
/* pixels */
"                                                                                                    ",
"                                                                                                    ",
"                                                                                                    ",
"                                                                                                    ",
"                                                                                                    ",
"                                                                                                    ",
"                                                                                                    ",
"                                                                                                    ",
"                                                                                                    ",
"....................................................................................................",
"...........++++++++++...............................................................+++++++++.......",
"...........++++++++++...............................................................+++++++++.......",
"...........++++++++++...............................................................+++++++++.......",
"...........++++++++++...............................................................+++++++++.......",
"...........++++++++++...............................................................+++++++++.......",
"...........++++++++++....@@@@@@@@@@@@@@@@@@@@@@@@@@@@@@@@@@@@@@@@@@@@@@@@@@@@@@@....+++++++++@@@@...",
".....@@@@@@++++++++++....@@@@@@@@@@@@@@@@@@@@@@@@@@@@@@@@@@@@@@@@@@@@@@@@@@@@@@@....+++++++++@@@@...",
".....@@@@@@++++++++++....@@@@@@@@@@@@@@@@@@@@@@@@@@@@@@@@@@@@@@@@@@@@@@@@@@@@@@@....+++++++++@@@@...",
".....@@@@@@++++++++++....@@@@@@@@@@@@@@@@@@@@@@@@@@@@@@@@@@@@@@@@@@@@@@@@@@@@@@@....+++++++++@@@@...",
".....@@@@@@++++++++++....@@@@@@@@@@@@@@@@@@@@@@@@@@@@@@@@@@@@@@@@@@@@@@@@@@@@@@@....+++++++++@@@@...",
".....@@@@@@++++++++++....@@@@@@@@@@@@@@@@@@@@@@@@@@@@@@@@@@@@@@@@@@@@@@@@@@@@@@@....+++++++++@@@@...",
".....@@@@@@++++++++++....@@@@@@@@@@@@@@@@@@@@@@@@@@@@@@@@@@@@@@@@@@@@@@@@@@@@@@@....+++++++++@@@@...",
".....@@@@@@++++++++++....@@@@@@@@@@@@@@@@@@@@@@@@@@@@@@@@@@@@@@@@@@@@@@@@@@@@@@@....+++++++++@@@@...",
".....@@@@@@++++++++++....@@@@@@@@@@@@@@@@@@@@@@@@@@@@@@@@@@@@@@@@@@@@@@@@@@@@@@@....+++++++++@@@@...",
".....@@@@@@++++++++++....@@@@@@@@@@@@@@@@@@@@@@@@@@@@@@@@@@@@@@@@@@@@@@@@@@@@@@@....+++++++++@@@@...",
".....@@@@@@++++++++++....@@@@@@@@@@@@@@@@@@@@@@@@@@@@@@@@@@@@@@@@@@@@@@@@@@@@@@@....+++++++++@@@@...",
".....@@@@@@++++++++++....@@@@@@@@@@@@@@@@@@@@@@@@@@@@@@@@@@@@@@@@@@@@@@@@@@@@@@@....+++++++++@@@@...",
".....@@@@@@++++++++++....@@@@@@@@@@@@@@@@@@@@@@@@@@@@@@@@@@@@@@@@@@@@@@@@@@@@@@@....+++++++++@@@@...",
".....@@@@@@++++++++++....@@@@@@@@@@@@@@@@@@@@@@@@@@@@@@@@@@@@@@@@@@@@@@@@@@@@@@@....+++++++++@@@@...",
".....@@@@@@++++++++++....@@@@@@@@@@@@@@@@@@@@@@@@@@@@@@@@@@@@@@@@@@@@@@@@@@@@@@@....+++++++++@@@@...",
".....@@@@@@++++++++++....@@@@@@@@@@@@@@@@@@@@@@@@@@@@@@@@@@@@@@@@@@@@@@@@@@@@@@@....+++++++++@@@@...",
".....@@@@@@++++++++++....@@@@@@@@@@@@@@@@@@@@@@@@@@@@@@@@@@@@@@@@@@@@@@@@@@@@@@@....+++++++++@@@@...",
".....@@@@@@++++++++++....@@@@@@@@@@@@@@@@@@@@@@@@@@@@@@@@@@@@@@@@@@@@@@@@@@@@@@@....+++++++++@@@@...",
".....@@@@@@++++++++++....@@@@@@@@@@@@@@@@@@@@@@@@@@@@@@@@@@@@@@@@@@@@@@@@@@@@@@@....+++++++++@@@@...",
".....@@@@@@++++++++++....@@@@@@@@@@@@@@@@@@@@@@@@@@@@@@@@@@@@@@@@@@@@@@@@@@@@@@@....+++++++++@@@@...",
".....@@@@@@++++++++++....@@@@@@@@@@@@@@@@@@@@@@@@@@@@@@@@@@@@@@@@@@@@@@@@@@@@@@@....+++++++++@@@@...",
".....@@@@@@++++++++++....@@@@@@@@@@@@@@@@@@@@@@@@@@@@@@@@@@@@@@@@@@@@@@@@@@@@@@@....+++++++++@@@@...",
".....@@@@@@++++++++++....@@@@@@@@@@@@@@@@@@@@@@@@@@@@@@@@@@@@@@@@@@@@@@@@@@@@@@@....+++++++++@@@@...",
".....@@@@@@++++++++++....@@@@@@@@@@@@@@@@@@@@@@@@@@@@@@@@@@@@@@@@@@@@@@@@@@@@@@@....+++++++++@@@@...",
".....@@@@@@++++++++++....@@@@@@@@@@@@@@@@@@@@@@@@@@@@@@@@@@@@@@@@@@@@@@@@@@@@@@@....+++++++++@@@@...",
".....@@@@@@++++++++++....@@@@@@@@@@@@@@@@@@@@@@@@@@@@@@@@@@@@@@@@@@@@@@@@@@@@@@@....+++++++++@@@@...",
".....@@@@@@++++++++++....@@@@@@@@@@@@@@@@@@@@@@@@@@@@@@@@@@@@@@@@@@@@@@@@@@@@@@@....+++++++++@@@@...",
".....@@@@@@++++++++++....@@@@@@@@@@@@@...........................@@@@@@@@@@@@@@@....+++++++++@@@@...",
".....@@@@@@++++++++++....@@@@@@@@@@@@@...........................@@@@@@@@@@@@@@@....+++++++++@@@@...",
"...........++++++++++...............................................................+++++++++.......",
"...........++++++++++...............................................................+++++++++.......",
"...........++++++++++...............................................................+++++++++.......",
"...........++++++++++...............................................................+++++++++.......",
".....++++++++++++++++++++++++++++++++++++..+++++++++++++++++..+++++++++++++++++++++++++++++++++++...",
".....++++++++++++++++++++++++++++++++++++..+++++++++++++++++..+++++++++++++++++++++++++++++++++++...",
".....++++++++++++++++++++++++++++++++++++..+++++++++++++++++..+++++++++++++++++++++++++++++++++++...",
".....++++++++++++++++++++++++++++++++++++..+++++++++++++++++..+++++++++++++++++++++++++++++++++++...",
".....++++++++++++++++++++++++++++++++++++..+++++++++++++++++..+++++++++++++++++++++++++++++++++++...",
".....++++++++++++++++++++++++++++++++++++..+++++++++++++++++..+++++++++++++++++++++++++++++++++++...",
".....++++++++++++++++++++++++++++++++++++..+++++++++++++++++..+++++++++++++++++++++++++++++++++++...",
".....++++++++++++++++++++++++++++++++++++..+++++........++++..+++++++++++++++++++++++++++++++++++...",
".....++++++++++++++++++++++++++++++++++++..+++++........++++..+++++++++++++++++++++++++++++++++++...",
"............+++++++++......................+++++........++++........................++++++++........",
"............+++++++++......................+++++++++++++++++........................++++++++........",
"............+++++++++......................+++++++++++++++++........................++++++++........",
"............+++++++++......................+++++++++++++++++........................++++++++........",
"............+++++++++......................+++++++++++++++++........................++++++++........",
"...........................................+++++++++++++++++........................................",
"...........................................+++++++++++++++++........................................",
".....@@@@@@@@@@@@@@@@@@@@@@@@@@@@@@@@@...........................@@@@@@@@@@@@@@@@@@@@@@@@@@@@@@@@...",
".....@@@@@@@@@@@@@@@@@@@@@@@@@@@@@@@@@...........................@@@@@@@@@@@@@@@@@@@@@@@@@@@@@@@@...",
".....@@@@@@@@@@@@@@@@@@@@@@@@@@@@@@@@@...........................@@@@@@@@@@@@@@@@@@@@@@@@@@@@@@@@...",
".....@@@@@@@@@@@@@@@@@@@@@@@@@@@@@@@@@...........................@@@@@@@@@@@@@@@@@@@@@@@@@@@@@@@@...",
".....@@@@@@@@@@@@@@@@@@@@@@@@@@@@@@@@@@.........................@@@@@@@@@@@@@@@@@@@@@@@@@@@@@@@@@...",
".....@@@@@@@@@@@@@@@@@@@@@@@@@@@@@@@@@@@@@@@@@@@@@@@@@@@@@@@@@@@@@@@@@@@@@@@@@@@@@@@@@@@@@@@@@@@@...",
".....@@@@@@@@@@@@@@@@@@@@@@@@@@@@@@@@@@@@@@@@@@@@@@@@@@@@@@@@@@@@@@@@@@@@@@@@@@@@@@@@@@@@@@@@@@@@...",
".....@@@@@@@@@@@@@@@@@@@@@@@@@@@@@@@@@@@@@@@@@@@@@@@@@@@@@@@@@@@@@@@@@@@@@@@@@@@@@@@@@@@@@@@@@@@@...",
".....@@@@@@@@@@@@@@@@@@@@@@@@@@@@@@@@@@@@@@@@@@@@@@@@@@@@@@@@@@@@@@@@@@@@@@@@@@@@@@@@@@@@@@@@@@@@...",
".....@@@@@@@@@@@@@@@@@@@@@@@@@@@@@@@@@@@@@@@@@@@@@@@@@@@@@@@@@@@@@@@@@@@@@@@@@@@@@@@@@@@@@@@@@@@@...",
".....@@@@@@@@@@@@@@@@@@@@@@@@@@@@@@@@@@@@@@@@@@@@@@@@@@@@@@@@@@@@@@@@@@@@@@@@@@@@@@@@@@@@@@@@@@@@...",
".....@@@@@@@@@@@@@@@@@@@@@@@@@@@@@@@@@@@@@@@@@@@@@@@@@@@@@@@@@@@@@@@@@@@@@@@@@@@@@@@@@@@@@@@@@@@@...",
".....@@@@@@@@@@@@@@@@@@@@@@@@@@@@@@@@@@@@@@@@@@@@@@@@@@@@@@@@@@@@@@@@@@@@@@@@@@@@@@@@@@@@@@@@@@@@...",
".....@@@@@@@@@@@@@@@@@@@@@@@@@@@@@@@@@@@@@@@@@@@@@@@@@@@@@@@@@@@@@@@@@@@@@@@@@@@@@@@@@@@@@@@@@@@@...",
".....@@@@@@@@@@@@@@@@@@@@@@@@@@@@@@@@@@@@@@@@@@@@@@@@@@@@@@@@@@@@@@@@@@@@@@@@@@@@@@@@@@@@@@@@@@@@...",
".....@@@@@@@@@@@@@@@@@@@@@@@@@@@@@@@@@@@@@@@@@@@@@@@@@@@@@@@@@@@@@@@@@@@@@@@@@@@@@@@@@@@@@@@@@@@@...",
".....@@@@@@@@@@@@@@@@@@@@@@@@@@@@@@@@@@@@@@@@@@@@@@@@@@@@@@@@@@@@@@@@@@@@@@@@@@@@@@@@@@@@@@@@@@@@...",
"....X@@@@@@@@@@@@@@@@@@@@@@@@@@@@@@@@@@@@@@@@@@@@@@@@@@@@@@@@@@@@@@@@@@@@@@@@@@@@@@@@@@@@@@@@@@@@...",
"....XO@@@@@@@@@@@@@@@@@@@@@@@@@@@@@@@@@@@@@@@@@@@@@@@@@@@@@@@@@@@@@@@@@@@@@@@@@@@@@@@@@@@@@@@@@@....",
"....................................................................................................",
"....................................................................................................",
"....................................................................................................",
"....................................................................................................",
"....................................................................................................",
"                                                                                                    ",
"                                                                                                    ",
"                                                                                                    ",
"                                                                                                    ",
"                                                                                                    ",
"                                                                                                    ",
"                                                                                                    ",
"                                                                                                    ",
"                                                                                                    ",
"                                                                                                    ",
"                                                                                                    ",
"                                                                                                    "
};
