/* XPM */
static char *e119b7fc892e4ecc9757e75c333ff901h8XWRIteZzk7orGp[] = {
/* columns rows colors chars-per-pixel */
"100 100 5 1 ",
"  c None",
". c black",
"X c #04356E",
"o c #C91A37",
"O c white",
/* pixels */
"                                                                                                    ",
"                                                                                                    ",
"                                                                                                    ",
"                                                                                                    ",
"                                                                                                    ",
"                                                                                                    ",
"                                                                                                    ",
"                                                                                                    ",
"                                                                                                    ",
"                        ....................................................                        ",
"                       ......................................................                       ",
"                       .........................................................                    ",
"                      ...........................................................                   ",
"                      ............................................................                  ",
"                     .......XXXXXXXXXXXXXXXXXXXXXXXXXXXXXXXXXXXXXXXXXXXXXXX.........                ",
"                    .......XXXXXXXXXXXXXXXXXXXXXXXXXXXXXXXXXXXXXXXXXXXXXXXXX.........               ",
"                   .......XXXXXXXXXXXXXXXXXXXXXXXXXXXXXXXXXXXXXXXXXXXXXXXXXXX.........              ",
"                 ..........XXXXXXXXXXXXXXXXXXXXXXXXXXXXXXXXXXXXXXXXXXXXXXXXXXXX........             ",
"                ............XXXXXXXXXXXXXXXXXXXXXXXXXXXXXXXXXXXXXXXXXXXXXXXXXXXX........            ",
"               ..............XXXXXXOOOOOOOOOOOXXXXXXXXXXXXXXXXXXXXXXXXXXXXXXXXXXX........           ",
"              ................XXXXOOOOOOOOOOOOOXXXXXXXXXXXXXXXXXXXXXXXXXXXXXXXXXXX.......           ",
"              .......ooo.......XXXOOOOOOOOOOOOOXXXXXXXXXXXXXXXXXXXXXXXXXXXXXXXXXXXX......           ",
"              .....oooooo......XXXOOOOOOOOOOOOOXXXXXXXXXXXXXXXXXXXXXXXXXXXXXXXXXXX......            ",
"             .....oooooooo.....XXXOOOO.....OOOOXXXXXXXXXXXXXXXXXXXXXXXXXXXXXXXXXX.......            ",
"             .....oooooooo.....XXXOOOO.....OOOOXXXXXXXXXXX...XXXXXXXXXXXXXXXXXXX........            ",
"             .....oooooooo.....XXXOOOO.....OOOOXXXXXXXXXX.....XXXXXXXXXXXXXXXX.........             ",
"             .....oooooooo.....XXXOOOO.....OOOOXXXXXXXXXX.....XXXXXXXXXXXXXXX.........              ",
"             .....oooooooo.....XXXOOOO.....OOOOXXXXXXXXXX.....XXXXXXXXXXXXXXX........               ",
"             .....oooooooo.....XXXOOOO.....OOOOXXXXXXXXXXX...XXXXXXXXXXXXXXXX.........              ",
"             .....ooooooo......XXXOOOO.....OOOOXXXXXXXXXXXXXXXXXXXXXXXXXXXXXXX........              ",
"             ......ooooo......XXXXOOOO.....OOOOXXXXXXXXXXXXXXXXXXXXXXXXXXXXXXXXX.......             ",
"             ................XXXXXOOOOOOOOOOOOOXXXXXXXXXXXXXXXXXXXXXXXXXXXXXXXXXX......             ",
"              .................XXXOOOOOOOOOOOOOXXXXXXXXXXXXXXXXXXXXXXXXXXXXXXXXXXX......            ",
"              ..................XXXOOOOOOOOOOOXXXXXXXXXXXXXXXXXXXXXXXXXXXXXXXXXXXXX.....            ",
"               ..................XXXXXXXXXXXXXXXXXXXXXXXXXXXXXXXXXXXXXXXXXXXXXXXXXX.....            ",
"                 .......ooo.......XXXXXXXXXXXXXXXXXXXXXXXXXXXXXXXXXXXXXXXXXXXXXXXXX.....            ",
"                 ......ooooo.......XXXXXXXXXXXXXXXXXXXXXXXXXXXXXXXXXXXXXXXXXXXXXXXX.....            ",
"                 .....ooooooo.......XXXXXXXXXXXXXXXXXXXXXXXXXXXXXXXXXXXXXXXXXXXXXXX.....            ",
"                 ....ooooooooo......XXXXXXXXXXXXXXXXXXXXXXXXXXXXXXXXXXXXXXXXXXXXXXX.....            ",
"                 ....ooooooooo......XXXXXXXXXXXXXXXXXXXXXXXXXXXXXXXXXXXXXXXXXXXXXXX.....            ",
"                 ....ooooooooo.....XXXXXXXXXXXXXXXXXXXXXXXXXXXXXXXXXXXXXXXXXXXXXXXX.....            ",
"                 ....oooooooo......XXXXXXXXXXXXXXXXXXXXXXXXXXXXXXXXXXXXXXXXXXXXXXXX.....            ",
"                 ....oooooooo.....XXXXXXXXXXXXXXXXXXXXXXXXXXXXXXXXXXXXXXXXXXXXXXXXX.....            ",
"                 ....ooooooo......XXXXXXXXXXXXXXXXXXXXXXXXXXXXXXXXXXXXXXXXXXXXXXXXX.....            ",
"                 ....oooooo......XXXXXXXXXXXXXXXXXXXXXXXXXXXXXXXX.......................            ",
"                 .....oooo.......XXXXXXXXXXXXXXXXXXXXXXXXXXXXXXX........................            ",
"                 ...............XXXXXXXXXXXXXXXXXXXXXXXXXXXXXXXX.......................             ",
"                 ...............XXXXXXXXXXXXXXXXXXXXXXXXXXXXXXXX.......................             ",
"                  ...............XXXXXXXXXXXXXXXXXXXXXXXXXXXXXXXX.....................              ",
"                   ................XXXXXXXXXXXXXXXXXXXXXXXXXXXXXXXXX.....                           ",
"                            ........XXXXXXXXXXXXXXXXXXXXXXXXXXXXXXXX.....                           ",
"                             ........XXXXXXXXXXXXXXXXXXXXXXXXXXXXXXX.....                           ",
"                              .......XXXXXXXXXXXXXXXXXXXXXXXXXXXXXXX.....                           ",
"                               .......XXXXXXXXXXXXXXXXXXXXXXXXXXXXXX.....                           ",
"                                ......XXXXXXXXXXXXXXXXXXXXXXXXXXXXXX.....                           ",
"                                 .....XXXXXXXXXXXXXXXX...................                           ",
"                                 .....XXXXXXXXXXXXXXX....................                           ",
"                                 .....XXXXXXXXXXXXXX.....................                           ",
"                                 .....XXXXXXXXXXXXXX.....................                           ",
"                          ............XXXXXXXXXXXXXX......ooooooooooo....                           ",
"                         .............XXXXXXXXXXXXXX.....ooooooooooooo...                           ",
"                        ..............XXXXXXXXXXXXXX.....ooooooooooooo...                           ",
"                        ..............XXXXXXXXXXXXXX.....ooooooooooooo...                           ",
"                        .............XXXXXXXXXXXXXXX.....ooooooooooooo...                           ",
"                        .....XXXXXXXXXXXXXXXXXXXXXXX.....ooooooooooooo...                           ",
"                        .....XXXXXXXXXXXXXXXXXXXXXXX......ooooooooooo....                           ",
"                        .....XXXXXXXXXXXXXXXXXXXXXXX.....................                           ",
"                        .....XXXXXXXXXXXXXXXXXXXXXXXX....................                           ",
"                        .....XXXXXXXXXXXXXXXXXXXXXXXX....................                           ",
"                        ......XXXXXXXXXXXXXXXXXXXXXXXX...................                           ",
"                        ........XXXXXXXXXXXXXXXXXXXXXXXXXXXXXX...........                           ",
"                         ........XXXXXXXXXXXXXXXXXXXXXXXXXXXXXXXXXXX.....                           ",
"                          ........XXXXXXXXXXXXXXXXXXXXXXXXXXXXXXXXXX.....                           ",
"                           ........XXXXXXXXXXXXXXXXXXXXXXXXXXXXXXXXX.....                           ",
"                            ........XXXXXXXXXXXXXXXXXXXXXXXXXXXXXXXX.....                           ",
"                             ........XXXXXXXXXXXXXXXXXXXXXXXXXXXXXXX.....                           ",
"                              .........XXXXXXXXXXXXXXXXXXXXXXXXXXXXX.....                           ",
"                                ........XXXXXXXXXXXXXXXXXXXXXXXXXXXX.....                           ",
"                                 .......XXXXXXXXX........XXXXXXXXXXX.....                           ",
"                                  ......XXXXXXXX..........XXXXXXXXXX.....                           ",
"                                  .....XXXXXXXX...........XXXXXXXXX......                           ",
"                                  .....XXXXXXX............XXXXXXXX......                            ",
"                                  .....XXXXX..............XXXXXXX.......                            ",
"                                  .....XXXX........  .....XXXXX.........                            ",
"                                  .....XXX........  ......XXXX.........                             ",
"                                  .....XX........   ......XXX.........                              ",
"                                  .....X........    .....XXX.........                               ",
"                                  .............     .....XX........                                 ",
"                                 .............      ..............                                  ",
"                                 ............       .............                                   ",
"                                 ...........        ...........                                     ",
"                                 ..........         ..........                                      ",
"                                 .........           ........                                       ",
"                                  .......                ...                                        ",
"                                                                                                    ",
"                                                                                                    ",
"                                                                                                    ",
"                                                                                                    ",
"                                                                                                    ",
"                                                                                                    "
};
