/* XPM */
static char *beac26c493344737dc8aa6be1ec79b0cGj2ZkIMRhGOsirpP[] = {
/* columns rows colors chars-per-pixel */
"100 100 4 1 ",
"  c None",
". c #010101",
"X c #3A3A3A",
"o c #780004",
/* pixels */
"                                                                                                    ",
"                                                                                                    ",
"                                                                                                    ",
"                                                                                                    ",
"                                                                                                    ",
"                                                                                                    ",
"                                                                                                    ",
"                                                                                                    ",
"                                                                                                    ",
"                        ......................................................                      ",
"                      .........................................................                     ",
"                     ...........................................................                    ",
"                   ..............................................................                   ",
"                  ...............................................................                   ",
"                 ........XXXXXXXXXXXXXXXXXXXXXXXXXXXXXXXXXXXXXXXXXXXXXXXXXX.......                  ",
"                ........XXXXXXXXXXXXXXXXXXXXXXXXXXXXXXXXXXXXXXXXXXXXXXXXXXXX.......                 ",
"               ........XXXXXXXXXXXXXXXXXXXXXXXXXXXXXXXXXXXXXXXXXXXXXXXXXXXXXX.......                ",
"               .......XXXXXXXXXXXXXXXXXXXXXXXXXXXXXXXXXXXXXXXXXXXXXXXXXXXXXXXX.......               ",
"              .......XXXXXXXXXXXXXXXXXXXXXXXXXXXXXXXXXXXXXXXXXXXXXXXXXXXXXXXXXX.......              ",
"             .......XXXXXXXXXXXXXXXXXXXXXXXXXXXXXXXXXXXXXXXXXXXXXXXXXXXXXXXXXXXX.......             ",
"            .......XXXXXXXXXXXXXXXXXXXXXXXXXXXXXXXXXXXXXXXXXXXXXXXXXXXXXXXXXXXXXX.......            ",
"           ......XXXXXXXXXXXXXXXXXXXXXXXXXXXXXXXXXXXXXXXXXXXXXXXXXXXXXXXXXXXXXXXXX.......           ",
"          ......XXXXXXXXXXXXXXXXXXXXXXXXXXXXXXXXXXXXXXXXXXXXXXXXXXXXXXXXXXXXXXXXXX........          ",
"         ......XXXXXXXXXXXXXXXXXXXXXXXXXXXXXXXXXXXXXXXXXXXXXXXXXXXXXXXXXXXXXXXXXXXX.......          ",
"         .....XXXXXXXXXXXXXXXXXXXXXXXXXXXXXXXXXXXXXXXXXXXXXXXXXXXXXXXXXXXXXXXXXXXXXX.......         ",
"         .....XXXXXXXXXXXXXXXXXXXXXXXXXXXXXXXXXXXXXXXXXXXXXXXXXXXXXXXXXXXXXXXXXXXXXXX.......        ",
"         .....XXXXXXXXXXXXXXXXXXXXXXXXXXXXXXXXXXXXXXXXXXXXXXXXXXXXXXXXXXXXXXXXXXXXXXXX......        ",
"         .....XXXXXXXXXXXXXXXXXXXXXXXXXXXXXXXXXXXXXXXXXXXXXXXXXXXXXXXXXXXXXXXXXXXXXXXXX.....        ",
"         .....XXXXXXXXXXXXXXXXXXXXXXXXXXXXXXXXXXXXXXXXXXXXXXXXXXXXXXXXXXXXXXXXXXXXXXXXX.....        ",
"         .....XXXXXXXXXXXXXXXXXXXXXXXXXXXXXXXXXXXXXXXXXXXXXXXXXXXXXXXXXXXXXXXXXXXXXXXXX.....        ",
"         .....XXXXXXXXXXXXXXXXXXXXXXXXXXXXXXXXXXXXXXXXXXXXXXXXXXXXXXXXXXXXXXXXXXXXXXXXX.....        ",
"         .....XXXXXXXXXXXXXXXXXXXXXXXXXXXXXXXXXXXXXXXXXXXXXXXXXXXXXXXXXXXXXXXXXXXXXXXXX.....        ",
"         .....XXXXXXXXXXXXXXXXXXXXXXXXXXXXXXXXXXXXXXXXXXXXXXXXXXXXXXXXXXXXXXXXXXXXXXXXX.....        ",
"         .....XXXXXXXXXXXXXXXXXXXXXXXXXXXXXXXXXXXXXXXXXXXXXXXXXXXXXXXXXXXXXXXXXXXXXXXXX.....        ",
"         .....XXXXXXXXXXXXXXXXXXXXXXXXXXXXXXXXXXXXXXXXXXXXXXXXXXXXXXXXXXXXXXXXXXXXXXXX......        ",
"         .....XXXXXXXXXXXXXXXXXXXXXXXXXXXXXXXXXXXXXXXXXXXXXXXXXXXXXXXXXXXXXXXXXXXXXXXX......        ",
"         .....XXXXXXXXXXXXXXXXXXXXXXXXXXXXXXXXXXXXXXXXXXXXXXXXXXXXXXXXXXXXXXXXXXXXXXXX.....         ",
"         .....XXXXXXXXXXXXXXXXXXXXXXXXXXXXXXXXXXXXXXXXXXXXXXXXXXXXX.....XXXXXXXXXXXXXX.....         ",
"         .....XXXXXXXXXXXXXXXXXXXXXXXXXXXXXXXXXXXXXXXXXXXXXXXXXXX.........XXXXXXXXXXXX.....         ",
"         .....XXXXXXXXXXXXXXXXXXXXXXXXXXXXXXXXXXXXXXXXXXXXXXXXXXX..ooooo...XXXXXXXXXXX.....         ",
"         .....XXXXXXXXXXXXXXXXXXXXXXXXXXXXXXXXXXXXXXXXXXXXXXXXXX.ooooooooo..XXXXXXXXXX.....         ",
"         .....XXXXXXXXXXXXXXXXXXXXXXXXXXXXXXXXXXXXXXXXXXXXXXXXX..ooooooooo..XXXXXXXXXX.....         ",
"         .....XXXXXXXXXXXXXXXXXXXXXXXXXXXXXXXXXXXXXXXXXXXXXXXX..ooooooooooo..XXXXXXXXX.....         ",
"         .....XXXXXXXXXXXXXXXXXXXXXXXXXXXXXXXXXXXXXXXXXXXXXXXX..ooooooooooo..XXXXXXXXX.....         ",
"         .....XXXXXXXXXXXXXXXXXXXXXXXXXXXXXXXXXXXXXXXXXXXXXXXX..ooooooooooo..XXXXXXXXX.....         ",
"         .....XXXXXXXXXXXXXXXXXXXXXXXXXXXXXXXXXXXXXXXXXXXXXXXX..ooooooooooo..XXXXXXXXX.....         ",
"         .....XXXXXXXXXXXXXXXXXXXXXXXXXXXXXXXXXXXXXXXXXXXXXXXX..ooooooooooo..XXXXXXXX......         ",
"         .....XXXXXXXXXXXXXXXXXXXXXXXXXXXXXXXXXXXXXXXXXXXXXXXXX..ooooooooo..XXXXXXXXX......         ",
"         .....XXXXXXXXXXXXXXXXXXXXXXXXXXXXXXXXXXXXXXXXXXXXXXXXX..ooooooooo..XXXXXXXXX.......        ",
"         .....XXXXXXXXXXXXXXXXXXXXXXXXXXXXXXXXXXXXXXXXXXXXXXXXXX...ooooo...XXXXXXXXXX.......        ",
"         .....XXXXXXXXXXXXXXXXXXXXXXXXXXXXXXXXXXXXXXXXXXXXXXXXXXX.........XXXXXXXXXXXX.......       ",
"         .....XXXXXXXXXXXXXXXXXXXXXXXXXXXXXXXXXXXXXXXXXXXXXXXXXXXXX.....XXXXXXXXXXXXXXX.......      ",
"         .....XXXXXXXXXXXXXXXXXXXXXXXXXXXXXXXXXXXXXXXXXXXXXXXXXXXXXXXXXXXXXXXXXXXXXXXXXX.......     ",
"         ......XXXXXXXXXXXXXXXXXXXXXXXXXXXXXXXXXXXXXXXXXXXXXXXXXXXXXXXXXXXXXXXXXXXXXXXXXX......     ",
"         ........XXXXXXXXXXXXXXXXXXXXXXXXXXXXXXXXXXXXXXXXXXXXXXXXXXXXXXXXXXXXXXXXXXXXXXXXX......    ",
"          ........XXXXXXXXXXXXXXXXXXXXXXXXXXXXXXXXXXXXXXXXXXXXXXXXXXXXXXXXXXXXXXXXXXXXXXXXX.....    ",
"           ........XXXXXXXXXXXXXXXXXXXXXXXXXXXXXXXXXXXXXXXXXXXXXXXXXXXXXXXXXXXXXXXXXXXXXXXX.....    ",
"            ........XXXXXXXXXXXXXXXXXXXXXXXXXXXXXXXXXXXXXXXXXXXXXXXXXXXXXXXXXXXXXXXXXXXXXXX.....    ",
"             ........XXXXXXXXXXXXXXXXXXXXXXXXXXXXXXXXXXXXXXXXXXXXXXXXXXXXXXXXXXXXXXXXXXXXXX.....    ",
"               ........XXXXXXXXXXXXXXXXXXXXXXXXXXXXXXXXXXXXXXXXXXXXXXXXXXXXXXXXXXXXXXXXXXXX.....    ",
"                ........XXXXXXXXXXXXXXXXXXXXXXXXXXXXXXXXXXXXXXXXXXXXXXXXXXXXXXXXXXXXXXXXXXX.....    ",
"                 ........XXXXXXXXXXXXXXXXXXXXXXXXXXXXXXXXXXXXXXXXXXXXXXXXXXXXXXXXXXXXXXXXX......    ",
"                  ........XXXXXXXXXXXXXXXXXXXXXXXXXXXXXXXXXXXXXXXXXXXXXXXXXXXXXXXXXXXXXXXX......    ",
"                   ........XXXXXXXXXXXXXXXXXXXXXXXXXXXXXXXXX.....XXXXXXXXXXXXXXXXXXXXXXXX.......    ",
"                    ........XXXXXXXXXXXXXXXXXXXXXXXXXXXXXXX.........XXXXXXXXXXXXXXXXXXXXX......     ",
"                     .........XXX....XXXXXXXXXXXXXXXXXXXXXX...........XXXXXXXXXXXXXXXXXX......      ",
"                       ........X......XXXXXXXXXXXXXXXXXXXXX..............XXXXXXXXXXXXXXX......      ",
"                        ..............XXXXXXXXXXXXXXXXXXXXXX................XXXXXXXXX........       ",
"                         .............XXXXXXXXXXXXXXXXXXXXXXXXX.............................        ",
"                          ...........XXXXXXXXXXXXXXXXXXXXXXXXXXXXX..........................        ",
"                           .........XXXXXXXXXXXXXXXXXXXXXXXXXXXXXXXX.......................         ",
"                           ........XXXXXXXXXXXXXXXXXXXXXXXXXXXXXXXXXXXX...................          ",
"                          ........XXXXXXXXXXXXXXXXXXXXXXXXXXXXXXXXXXXXXXXX.............             ",
"                         ........XXXXXXXXXXXXXXXXXXXXXXXXXXXXXXXXXXXXXXXXX.....                     ",
"                       ........XXXXXXXXXXXXXXXXXXXXXXXXXXXXXXXXXXXXXXXXXXX.....                     ",
"                       .......XXXXXXXXXXXXXXXXXXXXXXXXXXXXXXXXXXXXXXXXXXXX.....                     ",
"                      .......XXXXXXXXXXXXXXXXXXXXXXXXXXXXXXXXXXXXXXXXXXXXX.....                     ",
"                     .......XXXXXXXXXXXXXXXXXXXXXXXXXXXXXXXXXXXXXXXXXXXXXX.....                     ",
"                   ........XXXXXXXXXXXXXXXXXXXXXXXXXXXXXXXXXXXXXXXXXXXXXXX.....                     ",
"                  ........XXXXXXXXXXXXXXXXXXXXXXXXXXXXXXXXXXXXXXXXXXXXXXXX.....                     ",
"                  .......XXXXXXXXXXXXXXXXXXXXXXXXXXXXXXXXXXXXXXXXXXXXXXXXX.....                     ",
"                  ......XXXXXXXXXXX...XXXXXXXXXXXXXXXXXXXXXXXXXXXXXXXXXXXX.....                     ",
"                  .....XXXXXXXXXXX.....XXXXXXXXXXXXXXXXXXXXXX...XXXXXXXXXX.....                     ",
"                  .....XXXXXXXXXX......XXXXXXXXXXX...XXXXXXX.....XXXXXXXX......                     ",
"                  ......XXXXXXXXX......XXXXXXXXXX.....XXXXXX.....XXXXXXX.......                     ",
"                  ........XXXXXX.......XXXXXXXXXX.....XXXXXX.....XXXXXX.......                      ",
"                  ..........XXXX.......XXXXXXXXX......XXXXXX.....XXXXX........                      ",
"                  ............X........XXXXXXXXX......XXXXXX.................                       ",
"                   ....................XXXXXXXXX.....XXXXXXX................                        ",
"                       ................XXXXXXXXX.....XXXXXXXX..............                         ",
"                        ...............XXXXXXXXX.....XXXXXXXX.............                          ",
"                          .............XXXXXXXXX.....XXXXXXXX...........                            ",
"                            ...........XXXXXXXXX.....XXXXXXXX.....                                  ",
"                             ...  .....XXXXXXXXX.....XXXXXXXX.....                                  ",
"                                  .....XXXXXXXXX.....XXXXXXXX.....                                  ",
"                                  .....XXXXXXXXX.....XXXXXXXX.....                                  ",
"                                  .....XXXXXXXX......XXXXXXXX.....                                  ",
"                                  ................................                                  ",
"                                  .................................                                 ",
"                                  .................................                                 "
};
