/* XPM */
static char *_dfb4e2f156a41db85f9037d1f3d4e15Ch49oGDaMZZXtdZY[] = {
/* columns rows colors chars-per-pixel */
"100 100 4 1 ",
"  c None",
". c black",
"X c #3A3A3A",
"o c #780004",
/* pixels */
"                                                                                                    ",
"                                                                                                    ",
"                                                                                                    ",
"                                                                                                    ",
"                                                                                                    ",
"                                                                                                    ",
"                                                                                                    ",
"                                                                                                    ",
"                       .....................................................                        ",
"                      .........................................................                     ",
"                     ............................................................                   ",
"                    ..............................................................                  ",
"                   ................................................................                 ",
"                   .......XXXXX.............................XXXXXXXXXXXXX...........                ",
"                  ........XXXXXXXXXXXXXXXXXXXXXXXXXXXXXXXXXXXXXXXXXXXXXXXXX..........               ",
"                 ........XXXXXXXXXXXXXXXXXXXXXXXXXXXXXXXXXXXXXXXXXXXXXXXXXXXX.........              ",
"               ........XXXXXXXXXXXXXXXXXXXXXXXXXXXXXXXXXXXXXXXXXXXXXXXXXXXXXXX.........             ",
"              .........XXXXXXXXXXXXXXXXXXXXXXXXXXXXXXXXXXXXXXXXXXXXXXXXXXXXXXXX........             ",
"             .........XXXXXXXXXXXXXXXXXXXXXXXXXXXXXXXXXXXXXXXXXXXXXXXXXXXXXXXXXX........            ",
"            ........XXXXXXXXXXXXXXXXXXXXXXXXXXXXXXXXXXXXXXXXXXXXXXXXXXXXXXXXXXXXXX.......           ",
"           ........XXXXXXXXXXXXXXXXXXXXXXXXXXXXXXXXXXXXXXXXXXXXXXXXXXXXXXXXXXXXXXXX......           ",
"           .......XXXXXXXXXXXXXXXXXXXXXXXXXXXXXXXXXXXXXXXXXXXXXXXXXXXXXXXXXXXXXXXXX.......          ",
"          .......XXXXXXXXXXXXXXXXXXXXXXXXXXXXXXXXXXXXXXXXXXXXXXXXXXXXXXXXXXXXXXXXXXX......          ",
"         .......XXXXXXXXXXXXXXXXXXXXXXXXXXXXXXXXXXXXXXXXXXXXXXXXXXXXXXXXXXXXXXXXXXXX.......         ",
"         ......XXXXXXXXXXXXXXXXXXXXXXXXXXXXXXXXXXXXXXXXXXXXXXXXXXXXXXXXXXXXXXXXXXXXX.......         ",
"        .......XXXXXXXXXXXXXXXXXXXXXXXXXXXXXXXXXXXXXXXXXXXXXXXXXXXXXXXXXXXXXXXXXXXXX.......         ",
"        ......XXXXXXXXXXXXXXXXXXXXXXXXXXXXXXXXXXXXXXXXXXXXXXXXXXXXXXXXXXXXXXXXXXXXXXX......         ",
"        ......XXXXXXXXXXXXXXXXXXXXXXXXXXXXXXXXXXXXXXXXXXXXXXXXXXXXXXXXXXXXXXXXXXXXXXX......         ",
"        ......XXXXXXXXXXXXXXXXXXXXXXXXXXXXXXXXXXXXXXXXXXXXXXXXXXXXXXXXXXXXXXXXXXXXXXX......         ",
"        ......XXXXXXXXXXXXXXXXXXXXXXXXXXXXXXXXXXXXXXXXXXXXXXXXXXXXXXXXXXXXXXXXXXXXXXX......         ",
"        ......XXXXXXXXXXXXXXXXXXXXXXXXXXXXXXXXXXXXXXXXXXXXXXXXXXXXXXXXXXXXXXXXXXXXXXX......         ",
"        ......XXXXXXXXXXXXXXXXXXXXXXXXXXXXXXXXXXXXXXXXXXXXXXXXXXXXXXXXXXXXXXXXXXXXXXX......         ",
"        .....XXXXXXXXXXXXXXXXXXXXXXXXXXXXXXXXXXXXXXXXXXXXXXXXXXXXXXXXXXXXXXXXXXXXXXXX......         ",
"        .....XXXXXXXXXXXXXXXXXXXXXXXXXXXXXXXXXXXXXXXXXXXXXXXXXXXXXXXXXXXXXXXXXXXXXXXX......         ",
"        .....XXXXXXXXXXXXXXXXXXXXXXXXXXXXXXXXXXXXXXXXXXXXXXXXXXXXXXXXXXXXXXXXXXXXXXXX......         ",
"        .....XXXXXXXXXXXXXXXXXXXXXXXXXXXXXXXXXXXXXXXXXXXXXXXXXXXXXXXXXXXXXXXXXXXXXXXX......         ",
"        .....XXXXXXXXXXXXXXooooXXXXXXXXXXXXXXXXXXXXXXXXXXXXXXXXXXXXXXXXXXXXXXXXXXXXXX......         ",
"        .....XXXXXXXXXXXXooooooooXXXXXXXXXXXXXXXXXXXXXXXXXXXXXXXXXXXXXXXXXXXXXXXXXXXXX.....         ",
"        .....XXXXXXXXXXXXooooooooXXXXXXXXXXXXXXXXXXXXXXXXXXXXXXXXXXXXXXXXXXXXXXXXXXXXX.....         ",
"        .....XXXXXXXXXXXooooooooooXXXXXXXXXXXXXXXXXXXXXXXXXXXXXXXXXXXXXXXXXXXXXXXXXXXX.....         ",
"        .....XXXXXXXXXXXooooooooooXXXXXXXXXXXXXXXXXXXXXXXXXXXXXXXXXXXXXXXXXXXXXXXXXXXX.....         ",
"        ......XXXXXXXXXXooooooooooXXXXXXXXXXXXXXXXXXXXXXXXXXXXXXXXXXXXXXXXXXXXXXXXXXXX.....         ",
"        ......XXXXXXXXXXooooooooooXXXXXXXXXXXXXXXXXXXXXXXXXXXXXXXXXXXXXXXXXXXXXXXXXXXX.....         ",
"        ......XXXXXXXXXXXooooooooXXXXXXXXXXXXXXXXXXXXXXXXXXXXXXXXXXXXXXXXXXXXXXXXXXXXX.....         ",
"        ......XXXXXXXXXXXooooooooXXXXXXXXXXXXXXXXXXXXXXXXXXXXXXXXXXXXXXXXXXXXXXXXXXXXX.....         ",
"       .......XXXXXXXXXXXXXooooXXXXXXXXXXXXXXXXXXXXXXXXXXXXXXXXXXXXXXXXXXXXXXXXXXXXXX......         ",
"       ......XXXXXXXXXXXXXXXXXXXXXXXXXXXXXXXXXXXXXXXXXXXXXXXXXXXXXXXXXXXXXXXXXXXXXXXX......         ",
"       ......XXXXXXXXXXXXXXXXXXXXXXXXXXXXXXXXXXXXXXXXXXXXXXXXXXXXXXXXXXXXXXXXXXXXXXXX......         ",
"      .......XXXXXXXXXXXXXXXXXXXXXXXXXXXXXXXXXXXXXXXXXXXXXXXXXXXXXXXXXXXXXXXXXXXXXXXX......         ",
"     .......XXXXXXXXXXXXXXXXXXXXXXXXXXXXXXXXXXXXXXXXXXXXXXXXXXXXXXXXXXXXXXXXXXXXXXXXX......         ",
"     ......XXXXXXXXXXXXXXXXXXXXXXXXXXXXXXXXXXXXXXXXXXXXXXXXXXXXXXXXXXXXXXXXXXXXXXXXXX......         ",
"    .......XXXXXXXXXXXXXXXXXXXXXXXXXXXXXXXXXXXXXXXXXXXXXXXXXXXXXXXXXXXXXXXXXXXXXXXXXX......         ",
"    ......XXXXXXXXXXXXXXXXXXXXXXXXXXXXXXXXXXXXXXXXXXXXXXXXXXXXXXXXXXXXXXXXXXXXXXXXXX.......         ",
"    ......XXXXXXXXXXXXXXXXXXXXXXXXXXXXXXXXXXXXXXXXXXXXXXXXXXXXXXXXXXXXXXXXXXXXXXXXXX.......         ",
"    .....XXXXXXXXXXXXXXXXXXXXXXXXXXXXXXXXXXXXXXXXXXXXXXXXXXXXXXXXXXXXXXXXXXXXXXXXXX........         ",
"   ......XXXXXXXXXXXXXXXXXXXXXXXXXXXXXXXXXXXXXXXXXXXXXXXXXXXXXXXXXXXXXXXXXXXXXXXXX........          ",
"   ......XXXXXXXXXXXXXXXXXXXXXXXXXXXXXXXXXXXXXXXXXXXXXXXXXXXXXXXXXXXXXXXXXXXXXXXX........           ",
"   ......XXXXXXXXXXXXXXXXXXXXXXXXXXXXXXXXXXXXXXXXXXXXXXXXXXXXXXXXXXXXXXXXXXXXXXX........            ",
"   ......XXXXXXXXXXXXXXXXXXXXXXXXXXXXXXXXXXXXXXXXXXXXXXXXXXXXXXXXXXXXXXXXXXXXXX........             ",
"   ......XXXXXXXXXXXXXXXXXXXXXXXXXXXXXXXXXXXXXXXXXXXXXXXXXXXXXXXXXXXXXXXXXXXX.........              ",
"   ......XXXXXXXXXXXXXXXXXXXXXXXXXXXXXXXXXXXXXXXXXXXXXXXXXXXXXXXXXXXXXXXXXXX.........               ",
"   ......XXXXXXXXXXXXXXXXXXXXXXXXXXXXXXXXXXXXXXXXXXXXXXXXXXXXXXXXXXXXXXXXXX........                 ",
"   ......XXXXXXXXXXXXXXXXXXXXXXXXXXXXXXXXXXXXXXXXXXXXXXXXXXXXXXXXXXXXXXXXX........                  ",
"   .......XXXXXXXXXXXXXXXXXXXXXXXXXX...XXXXXXXXXXXXXXXXXXXXXXXXXXXXXXXXX.........                   ",
"   .......XXXXXXXXXXXXXXXXXXXXXXXX......XXXXXXXXXXXXXXXXXXXXXXXXXXXXXXX.........                    ",
"   ........XXXXXXXXXXXXXXXXXXXXX........XXXXXXXXXXXXXXXXXXXXXXXXXXXXXX.........                     ",
"    .......XXXXXXXXXXXXXXXXXXX...........XXXXXXXXXXXXXXXXXXXXXXXXXXXX........                       ",
"    ........XXXXXXXXXXXXXXXXX...........XXXXXXXXXXXXXXXXXXXXXXX.............                        ",
"    ..........XXXXXXXXXXX.............XXXXXXXXXXXXXXXXXXXXXXXXX............                         ",
"     ................................XXXXXXXXXXXXXXXXXXXXXXXXXX...........                          ",
"      .............................XXXXXXXXXXXXXXXXXXXXXXXXXXXXXX........                           ",
"       ..........................XXXXXXXXXXXXXXXXXXXXXXXXXXXXXXXXX.........                         ",
"         ......................XXXXXXXXXXXXXXXXXXXXXXXXXXXXXXXXXXXX.........                        ",
"            .................XXXXXXXXXXXXXXXXXXXXXXXXXXXXXXXXXXXXXXXX........                       ",
"                     .....XXXXXXXXXXXXXXXXXXXXXXXXXXXXXXXXXXXXXXXXXXXX........                      ",
"                     .....XXXXXXXXXXXXXXXXXXXXXXXXXXXXXXXXXXXXXXXXXXXXX........                     ",
"                     .....XXXXXXXXXXXXXXXXXXXXXXXXXXXXXXXXXXXXXXXXXXXXXX........                    ",
"                     .....XXXXXXXXXXXXXXXXXXXXXXXXXXXXXXXXXXXXXXXXXXXXXXX........                   ",
"                     .....XXXXXXXXXXXXXXXXXXXXXXXXXXXXXXXXXXXXXXXXXXXXXXXX........                  ",
"                     .....XXXXXXXXXXXXXXXXXXXXXXXXXXXXXXXXXXXXXXXXXXXXXXXXX.......                  ",
"                     .....XXXXXXXXXXXXXXXXXXXXXXXXXXXXXXXXXXXXXXXXXXXXXXXXXX.......                 ",
"                     .....XXXXXXXXXXXXXXXXXXXXXXXXXXXXXXXXXXXXXXXXXXXXXXXXXX.......                 ",
"                     .....XXXXXXXXXXXXXXXXXXXXXXXXXXXXXXXXXXX..XXXXXXXXXXXXXX......                 ",
"                     .....XXXXXXXXXXXXXXXXXXXXXXXXXXXXXXXXXXX...XXXXXXXXXXXXX.....                  ",
"                     ......XXXXXXXX...XXXXXXXXXX...XXXXXXXXXX....XXXXXXXXXXXX.....                  ",
"                     ......XXXXXXXX...XXXXXXXXXX...XXXXXXXXXX....XXXXXXXXXX.......                  ",
"                      .......XXXXXX...XXXXXXXXXX...XXXXXXXXXX......XXXXXX.........                  ",
"                       ...............XXXXXXXXXX...XXXXXXXXXX........XX...........                  ",
"                        ..............XXXXXXXXXX...XXXXXXXXXX....................                   ",
"                         .............XXXXXXXXXX...XXXXXXXXXX...................                    ",
"                          ............XXXXXXXXXX...XXXXXXXXXX.................                      ",
"                            ..........XXXXXXXXXX...XXXXXXXXXXX...............                       ",
"                                  ....XXXXXXXXXX...XXXXXXXXXXX.............                         ",
"                                  ....XXXXXXXXXX...XXXXXXXXXXX.... .....                            ",
"                                  ....XXXXXXXXXX...XXXXXXXXXXX.... .....                            ",
"                                  ....XXXXXXXXXX...XXXXXXXXXX.....  ...                             ",
"                                  ....XXXXXXXXXX....XXXXXXXXX.....                                  ",
"                                 ......................XXXX.......                                  ",
"                                 .................................                                  ",
"                                 .................................                                  "
};
