/* XPM */
static char *_f8b6df9abf24b30f8fe0f60ffc15712YDAlCTUk9LD927fm[] = {
/* columns rows colors chars-per-pixel */
"100 100 5 1 ",
"  c None",
". c black",
"X c #3A3A3A",
"o c #780004",
"O c white",
/* pixels */
"                                                                                                    ",
"                                                                                                    ",
"                                                                                                    ",
"                                                                                                    ",
"                                                                                                    ",
"                                                                                                    ",
"                     ........................................................                       ",
"                    ..........................................................                      ",
"                   ............................................................                     ",
"                  ..............................................................                    ",
"                 ................................................................                   ",
"                ........XXXXXXXXXXXXXXXXXXXXXXXXXXXXXXXXXXXXXXXXXXXXXXXXXXX.......                  ",
"               .......XXXXXXXXXXXXXXXXXXXXXXXXXXXXXXXXXXXXXXXXXXXXXXXXXXXXXX......                  ",
"              .......XXXXXXXXXXXXXXXXXXXXXXXXXXXXXXXXXXXXXXXXXXXXXXXXXXXXXXXX......                 ",
"             .......XXXXXXXXXXXXXXXXXXXXXXXXXXXXXXXXXXXXXXXXXXXXXXXXXXXXXXXXX.......                ",
"            .......XXXXXXXXXXXXXXXXXXXXXXXXXXXXXXXXXXXXXXXXXXXXXXXXXXXXXXXXXXX.......               ",
"           .......XXXXXXXXXXXXXXXXXXXXXXXXXXXXXXXXXXXXXXXXXXXXXXXXXXXXXXXXXXXXX.......              ",
"          .......XXXXXXXXXXXXXXXXXXXXXXXXXXXXXXXXXXXXXXXXXXXXXXXXXXXXXXXXXXXXXXX.......             ",
"         .......XXXXXXXXXXXXXXXXXXXXXXXXXXXXXXXXXXXXXXXXXXXXXXXXXXXXXXXXXXXXXXXXX......             ",
"         ......XXXXXXXXXXXXXXXXXXXXXXXXXXXXXXXXXXXXXXXXXXXXXXXXXXXXXXXXXXXXXXXXXX.......            ",
"        ......XXXXXXXXXXXXXXXXXXXXXXXXXXXXXXXXXXXXXXXXXXXXXXXXXXXXXXXXXXXXXXXXXXXX.......           ",
"       .......XXXXXXXXXXXXXXXXXXXXXXXXXXXXXXXXXXXXXXXXXXXXXXXXXXXXXXXXXXXXXXXXXXXXX......           ",
"       ......XXXXXXXXXXXXXXXXXXXXXXXXXXXXXXXXXXXXXXXXXXXXXXXXXXXXXXXXXXXXXXXXXXXXXXX.....           ",
"       .....XXXXXXXXXXXXXXXXXXXXXXXXXXXXXXXXXXXXXXXXXXXXXXXXXXXXXXXXXXXXXXXXXXXXXXXX.....           ",
"       .....XXXXXXXXXXXXXXXXXXXXXXXXXXXXXXXXXXXXXXXXXXXXXXXXXXXXXXXXXXXXXXXXXXXXXXXX.....           ",
"       .....XXXXXXXXXXXXXXXXXXXXXXXXXXXXXXXXXXXXXXXXXXXXXXXXXXXXXXXXXXXXXXXXXXXXXXXX.....           ",
"       .....XXXXXXXXXXXXXXXXXXXXXXXXXXXXXXXXXXXXXXXXXXXXXXXXXXXXXXXXXXXXXXXXXXXXXXXX.....           ",
"       .....XXXXXXXXXXXXXXXXXXXXXXXXXXXXXXXXXXXXXXXXXXXXXXXXXXXXXXXXXXXXXXXXXXXXXXXX.....           ",
"       .....XXXXXXXXXXXXXXXXXXXX....XXXXXXXXXXXXXXXXXXXXXXXXXXXXXXXXXXXXXXXXXXXXXXXX.....           ",
"       .....XXXXXXXXXXXXXXXXXX..oooo..XXXXXXXXXXXXXXXXXXX....XXXXXXXXXXXXXXXXXXXXXXX.....           ",
"       .....XXXXXXXXXXXXXXXXX.oooooooo.XXXXXXXXXXXXXXXX..oooo..XXXXXXXXXXXXXXXXXXXXX.....           ",
"       ....XXXXXXXXXXXXXXXXXX.oooooooo.XXXXXXXXXXXXXXX.oooooooo.XXXXXXXXXXXXXXXXXXXX.....           ",
"       .....XXXXXXXXXXXXXXXX.oooooooooo.XXXXXXXXXXXXXX.oooooooo.XXXXXXXXXXXXXXXXXXXX.....           ",
"       .....XXXXXXXXXXXXXXXX.oooooooooo.XXXXXXXXXXXXX.oooooooooo.XXXXXXXXXXXXXXXXXXX.....           ",
"       .....XXXXXXXXXXXXXXXX.oooooooooo.XXXXXXXXXXXXX.oooooooooo.XXXXXXXXXXXXXXXXXXX.....           ",
"       .....XXXXXXXXXXXXXXXX.oooooooooo.XXXXXXXXXXXXX.oooooooooo.XXXXXXXXXXXXXXXXXXX.....           ",
"       .....XXXXXXXXXXXXXXXXX.oooooooo.XXXXXXXXXXXXXX.oooooooooo.XXXXXXXXXXXXXXXXXXX.....           ",
"       .....XXXXXXXXXXXXXXXXX.oooooooo.XXXXXXXXXXXXXXX.oooooooo.XXXXXXXXXXXXXXXXXXX......           ",
"       .....XXXXXXXXXXXXXXXXXX..oooo..XXXXXXXXXXXXXXXX.oooooooo.XXXXXXXXXXXXXXXXXXXX.....           ",
"       .....XXXXXXXXXXXXXXXXXXXX....XXXXXXXXXXXXXXXXXXX..oooo..XXXXXXXXXXXXXXXXXXXXX....            ",
"       .....XXXXXXXXXXXXXXXXXXXXXXXXXXXXXXXXXXXXXXXXXXXXX....XXXXXXXXXXXXXXXXXXXXXXX....            ",
"       .....XXXXXXXXXXXXXXXXXXXXXXXXXXXXXXXXXXXXXXXXXXXXXXXXXXXXXXXXXXXXXXXXXXXXXXXX....            ",
"       .....XXXXXXXXXXXXXXXXXXXXXXXXXXXXXXXXXXXXXXXXXXXXXXXXXXXXXXXXXXXXXXXXXXXXXXXX....            ",
"       .....XXXXXXXXXXXXXXXXXXXXXXXXXXXXXXXXXXXXXXXXXXXXXXXXXXXXXXXXXXXXXXXXXXXXXXXX....            ",
"       .....XXXXXXXXXXXXXXXXXXXXXXXXXXXXXXXXXXXXXXXXXXXXXXXXXXXXXXXXXXXXXXXXXXXXXXXX....            ",
"       .....XXXXXXXXXXXXXXXXXXXXXXXXXXXXXXXXXXXXXXXXXXXXXXXXXXXXXXXXXXXXXXXXXXXXXXXX....            ",
"       .....XXXXXXXXXXXXXXXXXXXXXXXXXXXXXXXXXXXXXXXXXXXXXXXXXXXXXXXXXXXXXXXXXXXXXXX.....            ",
"       .....XXXXXXXXXXXXXXXXXXXXXXXXXXXXXXXXXXXXXXXXXXXXXXXXXXXXXXXXXXXXXXXXXXXXXXX.....            ",
"       .....XXXXXXXXXXXXXXXXXXXXXXXXXXXXXXXXXXXXXXXXXXXXXXXXXXXXXXXXXXXXXXXXXXXXXXX.....            ",
"       .....XXXXXXXXXXXXXXXXXXXXXXXXXXXXXXXXXXXXXXXXXXXXXXXXXXXXXXXXXXXXXXXXXXXXXXX.....            ",
"       .....XXXXXXXXXXXXXXXXXXXXXXXXXXXXXXXXXXXXXXXXXXXXXXXXXXXXXXXXXXXXXXXXXXXXXXX.....            ",
"       .....XXXXXXXXXXXXXXXXXXXXXXXXXXXXXXXXXXXXXXXXXXXXXXXXXXXXXXXXXXXXXXXXXXXXXX......            ",
"       .....XXXXXXXXXXXXXXXXXXXXXXXXXXXXXXXXXXXXXXXXXXXXXXXXXXXXXXXXXXXXXXXXXXXXX.......            ",
"       ......XXXXXXXXXXXXXXXXXXXXXXXXXXXXXXXXXXXXXXXXXXXXXXXXXXXXXXXXXXXXXXXXXXXX......             ",
"       .......XXXXXXXXXXXXXXXXXX....XXXXXXXXX....XXXXXXXXX....XXXXXXXXXXXXXXXXXX......              ",
"       ........XXXXXXXXXXXXXXXX......XXXXXXX......XXXXXXX......XXXXXXXXXXXXXXXX......               ",
"       ........XXXXXXXXXXXXXXX........XXXXX........XXXXX........XXXXXXXXXXXXXXX......               ",
"        ........XXXXXXXXXXXXXX........XXXXX........XXXXX........XXXXXXXXXXXXXX......                ",
"          ........XXXXXXXXXXXX........XXXXX........XXXXX........XXXXXXXXXXXXX......                 ",
"           ........XXXXXXXXXXX........XXXXX........XXXXX........XXXXXXXXXXXX......                  ",
"            .......XXXXXXXXXXX........XXXXX........XXXXX........XXXXXXXXXXXX......                  ",
"             ........XXXXXXXXX........XXXXX........XXXXX........XXXXXXXXXXXX.....                   ",
"              ........XXXXXXXX........XXXXX........XXXXX........XXXXXXXXXXXX....                    ",
"             .........XXXXXXXX........XXXXX........XXXXX........XXXXXXXXXXXX.....                   ",
"            .........XXXXXXXXX........XXXXX........XXXXX........XXXXXXXXXXXX.......                 ",
"           .........XXXXXXXXXX........XXXXX........XXXXX........XXXXXXXXXXXX........                ",
"         ..........XXXXXXXXXXX........XXXXX........XXXXX........XXXXXXXXXXXXXX.......               ",
"        ..........XXXXXXXXXXXX........XXXXX........XXXXX........XXXXXXXXXXXXXXX.......              ",
"       .........XXXXXXXXXXXXXXX......XXXXXX........XXXXX........XXXXXXXXXXXXXXX........             ",
"     ..........XXXXXXXXXXXXXXXXX....XXXXXXXX......XXXXXXX......XXXXXXXXXXXXXXXXX.........           ",
"    ..........XXXXXXXXXXXXXXXXXXXXXXXXXXXXXXX....XXXXXXXXX....XXXXXXXXXXXXXXXXXXXX........          ",
"   ..........XXXXXXXXXXXXXXXXXXXXXXXXXXXXXXXXXXXXXXXXXXXXXXXXXXXXXXXXXXXXXXXXXXXXXXX.......         ",
" ...........XXXXXXXXXXXXXXXXXXXXXXXXXXXXXXXXXXXXXXXXXXXXXXXXXXXXXXXXXXXXXXXXXXXXXXXXX.......        ",
"..........XXXXXXXXXXXXXXXXXXXXXXXXXXXXXXXXXXXXXXXXXXXXXXXXXXXXXXXXXXXXXXXXXXXXXXXXXXX........       ",
"........XXXXXXXXXXXXXXXXXXXXXXXXXXXXXXXXXXXXXXXXXXXXXXXXXXXXXXXXXXXXXXXXXXXXXXXXXXXXXXX.......      ",
".......XXXXXXXXXXXXXXXXXXXXXXXXXXXXXXXXXXXXXXXXXXXXXXXXXXXXXXXXXXXXXXXXXXXXXXXXXXXXXXXXXX......     ",
".....XXXXXXXXXXXXXXXXXXXXXXXXXXXXXXXXXXXXXXXXXXXXXXXXXXXXXXXXXXXXXXXXXXXXXXXXXXXXXXXXXXXXX......    ",
"....XXXXXXXXXXXXXXXXXXXXXXXXXXXXXXXXXXXXXXXXXXXXXXXXXXXXXXXXXXXXXXXXXXXXXXXXXXXXXXXXXXXXXX......    ",
"....XXXXXXXXXXXXXXXXXXXXXXXXXXXXXXXXXXXXXXXXXXXXXXXXXXXXXXXXXXXXXXXXXXXXXXXXXXXXXXXXXXXXXXX.....    ",
"....XXXXXXXXXXXXXXXXXXXXXXXXXXXXXXXXXXXXXXXXXXXXXXXXXXXXXXXXXXXXXXXXXXXXXXXXXXXXXXXXXXXXXXX.....    ",
"....XXXXXXXXXXXXXXXXXXXXXXXXXXXXXXXXXXXXXXXXXXXXXXXXXXXXXXXXXXXXXXXXXXXXXXXXXXXXXXXXXXXXXXX.....    ",
"....XXXXXXXXXXXXXXXXXXXXXXXXXXXXXXXXXXXXXXXXXXXXXXXXXXXXXXXXXXXXXXXXXXXXXXXXXXXXXXXXXXXXXXX.....    ",
"....XXXXXXXXXXXXXXXXXXXXXXXXXXXXXXXXXXXXXXXXXXXXXXXXXXXXXXXXXXXXXXXXXXXXXXXXXXXXXXXXXXXXXXX......   ",
"....XXXXXXXXXXXXXXXXXXXXXXXXXXXXXXXXXXXXXXXXXXXXXXXXXXXXXXXXXXXXXXXXXXXXXXXXXXXXXXXXXXXXXXX......   ",
"....XXXXXXXXXXXXXXXXXXXXXXXXXXXXXXXXXXXXXXXXXXXXXXXXXXXXXXXXXXXXXXXXXXXXXXXXXXXXXXXXXXXXXXX......   ",
".....XXXXXXXXXXXXXXXXXXXXXXXXXXXXXXXXXXXXXXXXXXXXXXXXXXXXXXXXXXXXXXXXXXXXXXXXXXXXXXXXXXXXX......    ",
"......XXXXXXXXXXXXXXXXXXXXXXXXXXXXXXX..................XXXXXXXXXXXXXXXXXXXXXXXXXXXXXXXXXXX.....     ",
".......XXXXXXXXXXXXXXXXXXXXXXXXXXXXXX..................XXXXXXXXXXXXXXXXXXXX...XXXXXXXXXXX.....      ",
" .......XXXXXXXXXXXXXXXXXXXXXXXXXXXXX...................XXXXXXXXXXXXXXXXXXX.....XXXXXXXXX....       ",
"  ........XXXXXXXXXXXXXXXXXXXXXXXXXXX...................XXXXXXXXXXXXXXXXXXX........XXXX......       ",
"   ..............XXXXXXXXXXXXXXXXXXXX...................XXXXXXXXXXXXXXXXXXX.................        ",
"    ..............XXXXXXXXXXXXXXXXXXX....OOO   OOOO.....XXXXXXXXXXXXXXXXXXX...............          ",
"     .............XXXXXXXXXXXXXXXXXXX....O        O.....XXXXXXXXXXXXXXXXXXX..............           ",
"      ............XXXXXXXXXXXXXXXXXX.....          .....XXXXXXXXXXXXXXXXXXX....   ......            ",
"       ...........XXXXXXXXXXXXXXXXXX.....           ....XXXXXXXXXXXXXXXXXXX....     ...             ",
"              ....XXXXXXXXXXXXXXXXXX.....           .....XXXXXXXXXXXXXXXXX.....                     ",
"              .....XXXXXXXXXXXXXXXXX.....           .....XXXXXXXXXXXXXXXXX.....                     ",
"              ......XXXXXXXXXXXXXXX......           .......XXXXXXXXXXXXX.......                     ",
"              ...........................           ...........................                     ",
"              ...........................        OO ...........................                     "
};
