/* XPM */
static char *de037a001be74544ac6c7a69234738eeAxk9LmBDHbNmEAf1[] = {
/* columns rows colors chars-per-pixel */
"100 100 11 1 ",
"  c None",
". c #151515",
"X c #353535",
"o c #3A3A3A",
"O c #5A5A5A",
"+ c #676767",
"@ c gray42",
"# c #727272",
"$ c #767676",
"% c #AFAFAF",
"& c gray69",
/* pixels */
"                                                                                                    ",
"                                                                                                    ",
"                                                                                                    ",
"                                                                                                    ",
"                                                                                                    ",
"                                                                                                    ",
"                     ....................................................                           ",
"                    .......................................................                         ",
"                  ...........................................................                       ",
"                 .............................................................                      ",
"                ..............................................................                      ",
"               .................................................................                    ",
"              .......................ooooooooooooooooooooooooooo.................                   ",
"            ................ooooooooooooooooooooooooooooooooooooooooo.............                  ",
"           ...........ooooooooooooooooooooooooooooooooooooooooooooooooo.............                ",
"          ..........oooooooooooooooooooooooooooooooooooooooooooooooooooooo...........               ",
"        ...........ooooooooooooooooooooooooooooooooooooooooooooooooooooooooo..........              ",
"       ...........ooooooooooooooooooooooooooooooooooooooooooooooooooooooooooo..........             ",
"      ............ooooooooooooooooooooooooooooooooooooooooooooooooooooooooooooo.........            ",
"      ...........oooooooooooooooooooooooooooooooooooooooooooooooooooooooooooooo..........           ",
"     ...........oooooooooooooooooooooooooooooooooooooooooooooooooooooooooooooooo.........           ",
"     ...........oooooooooooooooooooooooooooooooooooooooooooooooooooooooooooooooo.........           ",
"     ..........oooooooooooooooooooooooooooooooooooooooooooooooooooooooooooooooooo........           ",
"     ..........oooooooooooooooooooooooooooooooooooooooooooooooooooooooooooooooooo........           ",
"     .........oooooooooooooooooooooooooooooooooooooooooooooooooooooooooooooooooooo.......           ",
"     .........oooooooooooooooooooooooooooooooooooooooooooooooooooooooooooooooooooo.......           ",
"     .........oooooooooooooooooooooooooooooooooooooooooooooooooooooooooooooooooooo.......           ",
"     .........oooooooooooooooooooooooooooooooooooooooooooooooooooooooooooooooooooo.......           ",
"     .........oooooooooooooooooooooooooooooooooooooooooooooooooooooooooooooooooooo.......           ",
"     .........oooooooooooooooooooooooooooooooooooooooooooooooooooooooooooooooooooo........          ",
"     .........oooooooooooooooooooooooooooooooooooooooooooooooooooooooooooooooooooo........          ",
"     .........oooooooooooooooooooooooooooooooooooooooooooooooooooooooooooooooooooo........          ",
"      ........oooooooooooooooooooooooooooooooooooooooooooooooooooooooooooooooooooo........          ",
"      ........oooooooooooooooooooooooooooooooooooooooooooooooooooooooooooooooooooo........          ",
"      ........oooooooooooooooooooooooooooooooooooooooooooooooooooooooooooooooooooo........          ",
"      .......ooooooooooooooooooooooooooooooooooooooooooooooooooooooooooooooooooooo........          ",
"      .......ooooooooooooooooooooooooooooooooooooooooooooooooooooooooooooooooooooo.......           ",
"      .......ooooooooooooooooooooooooooooooooooooooooooooooooooooooooooooooooooooo.......           ",
"      .......ooooooooooooooooooooooooooooooooooooooooooooooooooooooooooooooooooooo.......           ",
"      .......ooooooooooooooooooooooooooooooooooooooooooooooooooooooooooooooooooooo.......           ",
"      .......ooooooooooooooooooooooooooooooooooooooooooooooooooooooooooooooooooooo.......           ",
"      .......ooooooooooooooooooooooooooooooooooooooooooooooooooooooooooooooooooooo.......           ",
"      .......ooooooooooooooooooooooooooooooooooooooooooooooooooooooooooooooooooooo.......           ",
"      .......ooooooooooooooooooooooooooooooooooooooooooooooooooooooooooooooooooooo.......           ",
"      .......ooooooooooooooooooooooooooooooooooooooooooooooooooooooooooooooooooooo.......           ",
"      .......ooooooooooooooooooooooooooooooooooooooooooooooooooooooooooooooooooooo.......           ",
"      .......ooooooooooooooooooooooooooooooooooooooooooooooooooooooooooooooooooooo.......           ",
"      ........oooooooooooooooooooooooooooooooooooooooooooooooooooooooooooooooooooo.......           ",
"      ........oooooooooooooooooooooooooooooooooooooooooooooooooooooooooooooooooooo.......           ",
"      ........oooooooooooooooooooooooooooooooooooooooooooooooooooooooooooooooooooo.......           ",
"      ........oooooooooooooooooooooooooooooooooooooooooooooooooooooooooooooooooooo.......           ",
"      ........oooooooooooooooooooooooooooooooooooooooooooooooooooooooooooooooooooo.......           ",
"      .........ooooooooooooooooooooooooooooooooooooooooooooooooooooooooooooooooooo.......           ",
"      .........oooooooooooooooooooooooooooooooooooooooooooooooooooooooooooooooooo........           ",
"      ..........ooooooooooooooooooooooooooooooooooooooooooooooooooooooooooooooooo........           ",
"       .........oooooooooooooooooooooooooooooooooooooooooooooooooooooooooooooooo........            ",
"        .........oooooooooooooooooooooooooooooooooooooooooooooooooooooooooooooo........             ",
"        ..........ooooooooooooooooooooooooooooooooooooooooooooooooooooooooooo.........              ",
"         .........oooooooooooooooooooooooooooooooooooooooooooooooooooooooooo........                ",
"           .........ooooooooooooooooooooooooooooooooooooooooooooooooooooooo........                 ",
"            ........oooooooooooooooooooooooooooooooooooooooooooooooooooooo........                  ",
"             ......ooooooooooooooooooooooooooooooooooooooooooooooooooooooo......                    ",
"            .......oooooooooooooooooooooooooooooooooooooooooooooooooooooo.........                  ",
"           .......ooooooooooooooooooooooooooooooooooooooooooooooooooooooooo........                 ",
"          .......oooooooooooooooooooooooooooooooooooooooooooooooooooooooooooo.......                ",
"         ........oooooooooooooooooooooooooooooooooooooooooooooooooooooooooooooo......               ",
"        ........oooooooooooooooooooooooooooooooooooooooooooooooooooooooooooooooo......              ",
"       ........ooooooooooooooooooooooooooooooooooooooooooooooooooooooooooooooooooo.....             ",
"      .......oooooooooooooooooooooooooooooooooooooooooooooooooooooooooooooooooooooo.....            ",
"     .......oooooooooooooooooooooooooooooooooooooooooooooooooooooooooooooooooooooooo.....           ",
"    .......oooooooooooooooooooooooooooooooooooooooooooooooooooooooooooooooooooooooooo......         ",
"   ........oooooooooooooooooooooooooooooooooooooooooooooooooooooooooooooooooooooooooooo.....        ",
"  .......ooooooooooooooooooooooooooooooooooooooooooooooooooooooooooooooooooooooooooooooo.....       ",
" .......ooooooooooooooooooooooooooooooooooooooooooooooooooooooooooooooooooooooooooooooooo.....      ",
".......ooooooooooooooooooooooooooooooooooooooooooooooooooooooooooooooooooooooooooooooooooo.....     ",
".......oooooooooooooo.oooooooooooooooooooooooooooooooooooooooooooooooooooooooooooooooooooo.....     ",
".....ooooooooooooooo..ooooooooooooooooooooooooooooooooooooooooooooooooooooooooooooooooooooo....     ",
".....oooooooooooooo...ooooooooooooooooooooooooooooooooooooooooooooooooooooooooooooooooooooo....     ",
"....ooooooooooooo.....ooooooooooooooooooooooooooooooooooooooooooooooooooooooooooooooooooooo....     ",
"....ooooooooooooo.....ooooooooooooooooooooooooooooooooooooooooooooooooooooooooooooooooooooo....     ",
"....oooooooooooo......oooooooooooooooooooooooooooooooooooooooooooooooooooooooo.ooooooooooo....      ",
"....ooooooooooo.......oooooooooooooooooooooooooooooooooooooooooooooooooooooooo..oooooooooo....      ",
".....oooooooo.........oooooooooooooooooooooooooooooooooooooooooooooooooooooooo....oooooo......      ",
".....oooooooo.........oooooooooooooooooooooooooooooooooooooooooooooooooooooooo................      ",
".......oooo...........oooooooooooooooooooooooooooooooooooooooooooooooooooooooo................      ",
"......................oooooooooooooooooooooooooooooooooooooooooooooooooooooo..................      ",
"......................oooooooooooooooooooooooooooooooooooooooooooooooooooooo...................     ",
"......................ooooooooooooooooooooooooooooooooooooooooooooooooooooo....................     ",
"                $X....oooooooooooooooooooooooooooooooooooooooooooooooooooo.....................     ",
"                 #....oooooooooooooo......................oooooooooooooooo....................      ",
"                 +....oooooooooooooo.......................oooooooooooooo.....                      ",
"                 +....ooooooooooooo........................oooooooooooooo...                        ",
"                 @....ooooooooooooo........................oooooooooooooo...                        ",
"&%&&%&           O....ooooooooooooo....&&&&&&&&&&&&&&&.....oooooooooooooo...                        ",
"&&&&&&&&&&&&&&&   ....ooooooooooooo....&&&&&&&&&&&&&&&......oooooooooooo....                        ",
"&&&&&&&&&&&&&&&&  .....ooooooooooo.....&&&&&&&&&&&&&&&......oooooooooooo....                        ",
"&&&&&&&&&&&&&&&&  .....ooooooooooo.....&&&&&&&&&&&&&&&........ooooooooo.....                        ",
"&&&&&&&&&&&&&&&&& .......ooooooo.......&&&&&&&&&&&&&&&......................                        ",
"&&&&&&&&&&&&&&&&& .....................&&&&&&&&&&&&&&&......................                        ",
"&&&&&&&&&&&&&&&&& .....................&&&&&&&&&&&&&&&......................                        "
};
