/* XPM */
static char *_d0cbf5ab80a446a93f93f473793945aMNNLR8UUrjaUgQlT[] = {
/* columns rows colors chars-per-pixel */
"100 100 13 1 ",
"  c None",
". c black",
"X c #060606",
"o c #090909",
"O c #0B0B0B",
"+ c #0C0C0C",
"@ c gray9",
"# c gray12",
"$ c #252525",
"% c gray48",
"& c #CF4E00",
"* c #CA9454",
"= c #E0C19C",
/* pixels */
"                                          ****************                                          ",
"                                       *********************                                        ",
"                                     **************************=                                    ",
"                                  *******************************=                                  ",
"                                ***********************************=                                ",
"                              ***************************************=                              ",
"                           =*********************************************                           ",
"                         =*************************************************                         ",
"                      *******************************************************                       ",
"                    ***********************************************************                     ",
"                  ***************************************************************                   ",
"               =********************************************************************                ",
"             *************************************************************************=             ",
"           *****************************************************************************=           ",
"         *********************************************************************************=         ",
"      ***************************************************************************************=      ",
"   *********************************************************************************************    ",
"  ***********************************************************************************************   ",
"  ************************************************************************************************  ",
"  ************************************************************************************************  ",
"  ************************************************************************************************  ",
"  =***********************************************************************************************  ",
"   =*********************************************************************************************   ",
"           +@#$$%%%%%%%%%%%%%%%%%%%%%%%%%%%%%%%%%%%%%%%%%%%%%%%%%%%%%%%%%%%%%%%%%%%%%%%%XXXXX       ",
"           XXXXX%%%%%%%%%%%%%%%%%%%%%%%%%%%%%%%%%%%%%%%%%%%%%%%%%%%%%%%%%%%%%%%%%%%%%%%%XXXXX       ",
"           XXXXX%%%%%%%%%%%%%%%%%%%%%%%%%%%%%%%%%%%%%%%%%%%%%%%%%%%%%%%%%%%%%%%%%%%%%%%%XXXXX       ",
"           XXXXX%%%%%%%%%%%%%%%%%%%%%%%%%%%%%%%%%%%%%%%%%%%%%%%%%%%%%%%%%%%%%%%%%%%%%%%%XXXXX       ",
"           XXXXX%%%%%%%%%%%%%%%%%%%%%%%%%%%%%%%%%%%%%%%%%%%%%%%%%%%%%%%%%%%%%%%%%%%%%%%%XXXXX       ",
"           XXXXX%%%%%%%%%%%%%%%%%%%%%%%%%%%%%%%%%%%%%%%%%%%%%%%%%%%%%%%%%%%%%%%%%%%%%%%%XXXXX       ",
"           XXXXX%%%%%%%%%%%%%%%%%%%%%%%%%%%%%%%%%%%%%%%%%%%%%%%%%%%%%%%%%%%%%%%%%%%%%%%%XXXXX       ",
"           XXXXX%%%%%%%%%%%%%%%%%%%%%%%%%%%%%%%%%%%%%%%%%%%%%%%%%%%%%%%%%%%%%%%%%%%%%%%%XXXXX       ",
"           XXXXX%%%%%%%%%%%%%%%%%%%%%%%%%%%%%%%%%%%%%%%%%%%%%%%%%%%%%%%%%%%%%%%%%%%%%%%%XXXXX       ",
"           XXXXX%%%%%%%%%%%%%%%%%%%%%%%%%%%%%%%%%%%%%%%%%%%%%%%%%%%%%%%%%%%%%%%%%%%%%%%%XXXXX       ",
"           XXXXX%%%%%%%%%%%%%%%%%%%%%%%%%%%%%%%%%%%%%%%%%%%%%%%%%%%%%%%%%%%%%%%%%%%%%%%%XXXXX       ",
"           XXXXX%%%%%%%%%%%%%%%%%%%%%%%%%%%%%%%%%%%%%%%%%%%%%%%%%%%%%%%%%%%%%%%%%%%%%%%%XXXXX       ",
"           XXXXX%%%%%%%%%%%%%%%%%%%%XXXXX%%%%%%%%%%%%%%%%%%%%%%%%%XXX%%%%%%%%%%%%%%%%%%%XXXXX       ",
"           XXXXX%%%%%%%%%%%%%%%%%%%XXXXXXXX%%%%%%%%%%%%%%%%%%%%%XXXXXXX%%%%%%%%%%%%%%%%%XXXXX       ",
"           XXXXXX%%%%%%%%%%%%%%%%%XXXXXXXXXX%%%%%%%%%%%%%%%%%%%XXXXXXXXX%%%%%%%%%%%%%%%%XXXXX       ",
"           XXXXXX%%%%%%%%%%%%%%%XXXXXXXXXXXXX%%%%%%%%%%%%%%%%%XXXXXXXXXXX%%%%%%%%%%%%%%%XXXXX       ",
"            XXXXX%%%%%%%%%%%%%%%XXX.......XXX%%%%%%%%%%%%%%%%XXXXXXXXXXXXX%%%%%%%%%%%%%%XXXXX       ",
"            XXXXX%%%%%%%%%%%%%%XXXXX******XXXX%%%%%%%%%%%%%%%XXXX*****XXXX%%%%%%%%%%%%%%XXXXX       ",
"            XXXXX%%%%%%%%%%%%%%XXXX********XXX%%%%%%%%%%%%%%XXXX*******XXX%%%%%%%%%%%%%%XXXXX       ",
"            XXXXX%%%%%%%%%%%%%%XXXX********XXX%%%%%%%%%%%%%%XXXX*******XXX%%%%%%%%%%%%%%XXXXX       ",
"            XXXXX%%%%%%%%%%%%%%XXXX********XXX%%%%%%%%%%%%%%XXXX*******XXX%%%%%%%%%%%%%%XXXXX       ",
"            XXXXX%%%%%%%%%%%%%%XXXX********XXX%%%%%%%%%%%%%%XXXX*******XXX%%%%%%%%%%%%%%XXXXX       ",
"            XXXXX%%%%%%%%%%%%%%%XXXX******XXX%%%%%%%%%%%%%%%%XXXX*****XXXX%%%%%%%%%%%%%%XXXXX       ",
"            XXXXX%%%%%%%%%%%%%%%%XXXX****XXXX%%%%%%%%%%%%%%%%XXXXXXXXXXXXX%%%%%%%%%%%%%%XXXXX       ",
"            XXXXX%%%%%%%%%%%%%%%%%XXXXXXXXXX%%%%%%%%%%%%%%%%%%XXXXXXXXXXX%%%%%%%%%%%%%%%XXXXX       ",
"            XXXXX%%%%%%%%%%%%%%%%%%XXXXXXXX%%%%%%%%%%%%%%%%%%%%XXXXXXXXX%%%%%%%%%%%%%%%%XXXXX       ",
"            XXXXX%%%%%%%%%%%%%%%%%%%XXXXX%%%%%%%%%%%%%%%%%%%%%%%%XXXXX%%%%%%%%%%%%%%%%%%XXXXX       ",
"            XXXXX%%%%%%%%%%%%%%%%%%%%%%%%%%%%%%%%%%%%%%%%%%%%%%%%%%%%%%%%%%%%%%%%%%%%%%%XXXXX       ",
"            XXXXXX%%%%%%%%%%%%%%%%%%%%%%%%%%%%%%%%%%%%%%%%%%%%%%%%%%%%%%%%%%%%%%%%%%%%%%XXXXX       ",
"            XXXXXXX%%%%%%%%%%%%%%%%%%******************************%%%%%%%%%%%%%%%%%%%%%XXXXX       ",
"             XXXXXX%%%%%%%%%%%%%%%%%*******************************%%%%%%%%%%%%%%%%%%%%%XXXXX       ",
"              XXXXXX%%%%%%%%%%%%%%%**********************************%%%%%%%%%%%%%%%%%%XXXXXX       ",
"               XXXXXX%%%%%%%%%%%%%%**********************************%%%%%%%%%%%%%%%%%XXXXXXX       ",
"               XXXXXXX%%%%%%%%%%%%%**********************************%%%%%%%%%%%%%%%XXXXXXXXX       ",
"                XXXXXX%%%%%%%%%%%%%**********************************%%%%%%%%%%%%%%XXXXXXXXX        ",
"                 XXXXXX%%%%%%%%%%%%**********************************%%%%%%%%%%%%%XXXXXXXX          ",
"                  XXXXXX%%%%%%%%%%%*********************************%%%%%%%%%%%%%XXXXXXXX           ",
"                  XXXXXXX%%%%%%%%%%%********************************%%%%%%%%%%%%XXXXXXXX            ",
"                   XXXXXX%%%%%%%%%%%*******************************%%%%%%%%%%%%XXXXXXXX             ",
"                    XXXXX%%%%%%%%%%%%******************************%%%%%%%%%%%XXXXXXXX              ",
"                   XXXXXX%%%%%%%%%%%%%****************************%%%%%%%%%%%%XXXXXXXXX             ",
"                 XXXXXXXX%%%%%%%%%%%%%%%%*********************%%%%%%%%%%%%%%%%XXXXXXXXXX            ",
"                XXXXXX&&&&&&%%%%&&&&&&&&&&&&&&&&&&&&&&&&&&&&&&&&&&&&&&&&&&&&&&&&&&XXXXXXX           ",
"               XXXXXX&&&&&&&&&&&&&&&&&&&&&&&&&&&&&&&&&&&&&&&&&&&&&&&&&&&&&&&&&&&&&&&XXXXXXX         ",
"              XXXXXX&&&&&&&&&&&&&&&&&&&&&&&&&&&&&&&&&&&&&&&&&&&&&&&&&&&&&&&&&&&&&&&&&XXXXXXX        ",
"             XXXXXX&&&&&&&&&&&&&&&&&&&&&&&&&&&&&&&&&&&&&&&&&&&&&&&&&&&&&&&&&&&&&&&&&&&XXXXXXX       ",
"           XXXXXXo&&&&&&&&&&&&&&&&&&&&&&&&&&&&&&&&&&&&&&&&&&&&&&&&&&&&&&&&&&&&&&&&&&&&&&XXXXXXX     ",
"          XXXXXXo&&&&&&&&&&&&&&&&&&&&&&&&&&&&&&&&&&&&&&&&&&&&&&&&&&&&&&&&&&&&&&&&&&&&&&&&XXXXXXX    ",
"         XXXXXX&&&&&&&&&&&&&&&&&&&&&&&&&&&&&&&&&&&&&&&&&&&&&&&&&&&&&&&&&&&&&&&&&&&&&&&&&&&XXXXXXX   ",
"        XXXXXX&&&&&&&&&&&&&&&&&&&&&&&&&&&&&&&&&&&&&&&&&&&&&&&&&&&&&&&&&&&&&&&&&&&&&&&&&&&&&XXXXXXXX ",
"       XXXXXX&&&&&&&&&&&&&&&&&&&&&&&&&&&&&&&&&&&&&&&&&&&&&&&&&&&&&&&&&&&&&&&&&&&&&&&&&&&&&&&XXXXXXXX",
"      XXXXX&&&&&&&&&&&&&&&&&&&&&&&&&&&&&&&&&&&&&&&&&&&&&&&&&&&&&&&&&&&&&&&&&&&&&&&&&&&&&&&&&&XXXXXXX",
"     XXXXX&&&&&&&&&&&&&&&&&&&&&&&&&&&&&&&&&&&&&&&&&&&&&&&&&&&&&&&&&&&&&&&&&&&&&&&&&&&&&&&&&&&&&XXXXX",
"    XXXXX&&&&&&&&&&&&&&&&&&&&&&&&&&&&&&&&&&&&&&&&&&&&&&&&&&&&&&&&&&&&&&&&&&&&&&&&&&&&&&&&&&&&&&&XXXX",
"    XXXXX&&&&&&&&&&&&&&&&&&&&&&&&&&&&&&&&&&&&&&&&&&&&&&&&&&&&&&&&&&&&&&&&&&&&&&&&&&&&&&&&&&&&&&&XXXX",
"    XXXXX&&&&&&&&&&&&&&&&&&&&&&&&&&&&&&&&&&&&&&&&&&&&&&&&&&&&&&&&&&&&&&&&&&&&&&&&&&&&&&&&&&&&&&&XXXX",
"    XXXXX&&&&&&&&&&&&&&&&&&&&&&&&&&&&&&&&&&&&&&&&&&&&&&&&&&&&&&&&&&&&&&&&&&&&&&&&&&&&&&&&&&&&&&&XXXX",
"    XXXXX&&&&&&&&&&&&&&&&&&&&&&&&&&&&&&&&&&&&&&&&&&&&&&&&&&&&&&&&&&&&&&&&&&&&&&&&&&&&&&&&&&&&&&&XXXX",
"    XXXXX&&&&&&&&&&&&&&&&&&&&&&&&&&&&&&&&&&&&&&&&&&&&&&&&&&&&&&&&&&&&&&&&&&&&&&&&&&&&&&&&&&&&&&&&XXX",
"   XXXXXX&&&&&&&&&&&&&&&&&&&&&&&&&&&&&&&&&&&&&&&&&&&&&&&&&&&&&&&&&&&&&&&&&&&&&&&&&&&&&&&&&&&&&&&&XXX",
"   XXXXXX&&&&&&&&&&&&&&&&&&&&&&&&&&&&&&&&&&&&&&&&&&&&&&&&&&&&&&&&&&&&&&&&&&&&&&&&&&&&&&&&&&&&&&&&XXX",
"   XXXXXX&&&&&&&&&&&&&&&&&&&&&&&&&&&&&&&&&&&&&&&&&&&&&&&&&&&&&&&&&&&&&&&&&&&&&&&&&&&&&&&&&&&&&&&&XXX",
"    XXXXXX&&&&&&&&&&&&&&&&&&&&&&&&&&&&&&&&&&&&&&&&&&&&&&&&&&&&&&&&&&&&&&&&&&&&&&&&&&&&&&&&&&&&&&XXXX",
"     XXXXXX&&&&&&&&&&&&&&&&&&&&&&&&&&&.........&&XXXXXXXXXXXXX...................&&&&&&&&&&&&&XXXXXX",
"      XXXXXX&&&&&&&&&&&XXX......................XXXXXXXXXXXXX....................&&&&&&&&&&&&XXXXXXX",
"       XXXXXXX&&&&&XXXXXX.......................XXXXXXXXXXXXX....................&&&&&&&&&&&XXXXXXX ",
"       XXXXXXXXXXXXXXXXXX.......................XXXXXXXXXXXXX.....................&&&&&&&&XXXXXXXX  ",
"        XXXXXXXXXXXXXXXXX.......................XXXXXXXXXXXXX......................XXXXXXXXXXXXXX   ",
"          XXXXXXXXXXXXXXX......................XX          XXX....................XXXXXXXXXXXXXX    ",
"           XXXXXXXXXXXXX.....................XXXX          XXX....................XXXXXXXXXXXXX     ",
"            XXXXXX   XXX.....................XXXX          XXX....................XXXXXXXXXXXX      ",
"             XXX     XXX.....................XXX           XXX....................XXXXXXXXXXX       ",
"                     XXX.....................XXX           XXX...................XXXXX              ",
"                     XXXX....................XXX           XXX...............XXXXXXXXX              ",
"                     XXXXX...................XXX           XXXX..............XXXXXXXXX              ",
"                     XXXXXXXXXXXXXXXX.......XXXX           XXXXXXXXXXXX.....XXXXXXXXXX              ",
"                     XXXXXXXXXXXXXXXXXXXXXXXXXXX           XXXXXXXXXXXXXXXXXXXXXXXXXXX              "
};
