/* XPM */
static char *a4672a47b83a4e19daa6b9acbc3e9ba19f0p3wSHYAyoSSG3[] = {
/* columns rows colors chars-per-pixel */
"100 100 11 1 ",
"  c None",
". c black",
"X c #060606",
"o c gray13",
"O c gray20",
"+ c gray24",
"@ c #3F3F3F",
"# c #434343",
"$ c gray48",
"% c #CF4E00",
"& c #CA9454",
/* pixels */
"                                      &&&&&&&&&&&&&&&&&&&                                           ",
"                                    &&&&&&&&&&&&&&&&&&&&&&&                                         ",
"                                 &&&&&&&&&&&&&&&&&&&&&&&&&&&&                                       ",
"                                &&&&&&&&&&&&&&&&&&&&&&&&&&&&&&&                                     ",
"                              &&&&&&&&&&&&&&&&&&&&&&&&&&&&&&&&&&&                                   ",
"                            &&&&&&&&&&&&&&&&&&&&&&&&&&&&&&&&&&&&&&&                                 ",
"                          &&&&&&&&&&&&&&&&&&&&&&&&&&&&&&&&&&&&&&&&&&&&                              ",
"                        &&&&&&&&&&&&&&&&&&&&&&&&&&&&&&&&&&&&&&&&&&&&&&&&                            ",
"                      &&&&&&&&&&&&&&&&&&&&&&&&&&&&&&&&&&&&&&&&&&&&&&&&&&&&                          ",
"                   &&&&&&&&&&&&&&&&&&&&&&&&&&&&&&&&&&&&&&&&&&&&&&&&&&&&&&&&&                        ",
"                  &&&&&&&&&&&&&&&&&&&&&&&&&&&&&&&&&&&&&&&&&&&&&&&&&&&&&&&&&&&&                      ",
"                &&&&&&&&&&&&&&&&&&&&&&&&&&&&&&&&&&&&&&&&&&&&&&&&&&&&&&&&&&&&&&&&                    ",
"              &&&&&&&&&&&&&&&&&&&&&&&&&&&&&&&&&&&&&&&&&&&&&&&&&&&&&&&&&&&&&&&&&&&&&                 ",
"            &&&&&&&&&&&&&&&&&&&&&&&&&&&&&&&&&&&&&&&&&&&&&&&&&&&&&&&&&&&&&&&&&&&&&&&&&               ",
"          &&&&&&&&&&&&&&&&&&&&&&&&&&&&&&&&&&&&&&&&&&&&&&&&&&&&&&&&&&&&&&&&&&&&&&&&&&&&&             ",
"        &&&&&&&&&&&&&&&&&&&&&&&&&&&&&&&&&&&&&&&&&&&&&&&&&&&&&&&&&&&&&&&&&&&&&&&&&&&&&&&&&           ",
"     &&&&&&&&&&&&&&&&&&&&&&&&&&&&&&&&&&&&&&&&&&&&&&&&&&&&&&&&&&&&&&&&&&&&&&&&&&&&&&&&&&&&&          ",
"    &&&&&&&&&&&&&&&&&&&&&&&&&&&&&&&&&&&&&&&&&&&&&&&&&&&&&&&&&&&&&&&&&&&&&&&&&&&&&&&&&&&&&&&&        ",
"   &&&&&&&&&&&&&&&&&&&&&&&&&&&&&&&&&&&&&&&&&&&&&&&&&&&&&&&&&&&&&&&&&&&&&&&&&&&&&&&&&&&&&&&&&&&&     ",
"  &&&&&&&&&&&&&&&&&&&&&&&&&&&&&&&&&&&&&&&&&&&&&&&&&&&&&&&&&&&&&&&&&&&&&&&&&&&&&&&&&&&&&&&&&&&&&&&   ",
"  &&&&&&&&&&&&&&&&&&&&&&&&&&&&&&&&&&&&&&&&&&&&&&&&&&&&&&&&&&&&&&&&&&&&&&&&&&&&&&&&&&&&&&&&&&&&&&&&  ",
" &&&&&&&&&&&&&&&&&&&&&&&&&&&&&&&&&&&&&&&&&&&&&&&&&&&&&&&&&&&&&&&&&&&&&&&&&&&&&&&&&&&&&&&&&&&&&&&&&& ",
" &&&&&&&&&&&&&&&&&&&&&&&&&&&&&&&&&&&&&&&&&&&&&&&&&&&&&&&&&&&&&&&&&&&&&&&&&&&&&&&&&&&&&&&&&&&&&&&&&& ",
" &&&&&&&&&&&&&&&&&&&&&&&&&&&&&&&&&&&&&&&&&&&&&&&&&&&&&&&&&&&&&&&&&&&&&&&&&&&&&&&&&&&&&&&&&&&&&&&&&& ",
" &&&&&&&&&&&&&&&&&&&&&&&&&&&&&&&&&&&&&&&&&&&&&&&&&&&&&&&&&&&&&&&&&&&&&&&&&&&&&&&&&&&&&&&&&&&&&&&&&& ",
"  &&&&&&&&&&&&&&&&&&&&&&&&&&&&&&&&&&&&&&&&&&&&&&&&&&&&&&&&&&&&&&&&&&&&&&&&&&&&&&&&&&&&&&&&&&&&&&&&  ",
"        O+##+#$$$$$$$$$$$$$$$$$$$$$$$$$$$$$$$$$$$$$$$$$$$$$$$$$$$$$$$$$$$$$$$$$$$$$$$$ooooo         ",
"        XXXXX$$$$$$$$$$$$$$$$$$$$$$$$$$$$$$$$$$$$$$$$$$$$$$$$$$$$$$$$$$$$$$$$$$$$$$$$$XXXXX         ",
"        XXXXX$$$$$$$$$$$$$$$$$$$$$$$$$$$$$$$$$$$$$$$$$$$$$$$$$$$$$$$$$$$$$$$$$$$$$$$$$XXXXX         ",
"        XXXXX$$$$$$$$$$$$$$$$$$$$$$$$$$$$$$$$$$$$$$$$$$$$$$$$$$$$$$$$$$$$$$$$$$$$$$$$$XXXXX         ",
"        XXXX$$$$$$$$$$$$$$$$$$$$$$$$$$$$$$$$$$$$$$$$$$$$$$$$$$$$$$$$$$$$$$$$$$$$$$$$$$XXXXX         ",
"        XXXX$$$$$$$$$$$$$$$$$$$$$$$$$$$$$$$$$$$$$$$$$$$$$$$$$$$$$$$$$$$$$$$$$$$$$$$$$$XXXXX         ",
"        XXXX$$$$$$$$$$$$$$$$$$$$$$$$$$$$$$$$$$$$$$$$$$$$$$$$$$$$$$$$$$$$$$$$$$$$$$$$$$XXXXX         ",
"        XXXXX$$$$$$$$$$$$$$$$$$$$$$$$$$$$$$$$$$$$$$$$$$$$$$$$$$$$$$$$$$$$$$$$$$$$$$$$$XXXXX         ",
"        XXXXXX$$$$$$$$$$$$$$$$$$$$$$$$$$$$$$$$$$$$$$$$$$$$$$$$$$$$$$$$$$$$$$$$$$$$$$$$XXXXX         ",
"        XXXXXX$$$$$$$$$$$$$$$$$$$$$$$$$$$$$$$$$$$$$$$$$$$$$$$$$$$$$$$$$$$$$$$$$$$$$$$$XXXXX         ",
"         XXXXX$$$$$$$$$$$$$$$$$$$$$$$$$$$$$$$$$$$$$$$$$$$$$$$$$$$$$$$$$$$$$$$$$$$$$$$$XXXXX         ",
"         XXXXX$$$$$$$$$$$$$$$$$$$$$$$$$$$$$$$$$$$$$$$$$$$$$$$$$$$$$$$$$$$$$$$$$$$$$$$$XXXXX         ",
"         XXXXX$$$$$$$$$$$$$$$$$$$$$$$$$$$$$$$$$$$$$$$$$$$$$$$$$$$$$$$$$$$$$$$$$$$$$$$$XXXXX         ",
"         XXXXX$$$$$$$$$$$$XXXXXXXX..$$$$$$$$$$$$$$$$$$$$$$$$$$$$$$$$$$$$$$$$$$$$$$$$$$XXXXX         ",
"         XXXXX$$$$$$$$$$$..XXXX.....$$$$$$$$$$$$$$$$$$$$$$$$$$$$$$$$$$$$$$$$$$$$$$$$$$XXXXX         ",
"         XXXXX$$$$$$$$$$$..&&&&&&&...$$$$$$$$$$$$$$$$$$$$$$$$$$$$$$$$$$$$$$$$$$$$$$$$$XXXXX         ",
"         XXXXX$$$$$$$$$$...&&&&&&&&..$$$$$$$$$$$$$$$$$$$$$$$$$$$$$$$$$$$$$$$$$$$$$$$$$XXXXX         ",
"         XXXXX$$$$$$$$$$...&&&&&&&&..$$$$$$$$$$$$$$$$$$$$$$$$$$$$$$$$$$$$$$$$$$$$$$$$$XXXXX         ",
"         XXXXX$$$$$$$$$$..&&&&&&&&&..$$$$$$$$$$$$$$$$$$$$$$$$$$$$$$$$$$$$$$$$$$$$$$$$$XXXXX         ",
"         XXXXX$$$$$$$$$$..&&&&&&&&&..$$$$$$$$$$$$$$$$$$$$$$$$$$$$$$$$$$$$$$$$$$$$$$$$$XXXXX         ",
"         XXXXXX$$$$$$$$$..&&&&&&&&&..$$$$$$$$$$$$$$$$$$$$$$$$$$$$$$$$$$$$$$$$$$$$$$$$$XXXXX         ",
"         XXXXXX$$$$$$$$$...&&&&&&&&..$$$$$$$$$$$$$$$$$$$$$$$$$$$$$$$$$$$$$$$$$$$$$$$$$XXXXX         ",
"        XXXXXXX$$$$$$$$$....&&&&&&...$$$$$$$$$$$$$$$$$$$$$$$$$$$$$$$$$$$$$$$$$$$$$$$$$XXXXX         ",
"       XXXXXXX$$$$$$$$$$$...........$$$$$$$$$$$$$$$$$$$$$$$$$$$$$$$$$$$$$$$$$$$$$$$$$$XXXXX         ",
"      XXXXXXX$$$$$$$$$$$$$.........$$$$$$$$$$$$$$$$$$$$$$$$$$$$$$$$$$$$$$$$$$$$$$$$$$$XXXXX         ",
"      XXXXXX$$$$$$$$$$$$$$$$$$$$$$$$$$$$$$$$$$$$$$$$$$$$$$$$$$$$$$$$$$$$$$$$$$$$$$$$$$XXXXX         ",
"     XXXXXX$$$$$$$$$$$$$$$$$$$$$$$$$$$$$$$$$$$$$$$$$$$$$$$$$$$$$$$$$$$$$$$$$$$$$$$$$$$XXXXX         ",
"    XXXXXX$$$$$$$$$$$$$$$$$$$$$$$$$$$$$$$$$$$$$$$$$$$$$$$$$$$$$$$$$$$$$$$$$$$$$$$$$$$XXXXXX         ",
"    XXXXX$$$$$$$$$$$$$$$$$$$$$$$$$$$$$$$$$$$$$$$$$$$$$$$$$$$$$$$$$$$$$$$$$$$$$$$$$$$XXXXXXX         ",
"    XXXXX$$$$$$$$$$$$$$$$$$$$$$$$$$$$$$$$$$$$$$$$$$$$$$$$$$$$$$$$$$$$$$$$$$$$$$$$$XXXXXXXX          ",
"    XXXXX$$$$$$$$$$$&&$$$$$$$$$$$$$$$$$$$$$$$$$$$$$$$$$$$$$$$$$$$$$$$$$$$$$$$$$$$XXXXXXXX           ",
"    XXXXX$$$$$$$$&&&&&&&$$$$$$$$$$$$$$$$$$$$$$$$$$$$$$$$$$$$$$$$$$$$$$$$$$$$$$$$XXXXXXXX            ",
"   XXXXXX$$$$$&&&&&&&&&&&$$$$$$$$$$$$$$$$$$$$$$$$$$$$$$$$$$$$$$$$$$$$$$$$$$$$$$XXXXXXXX             ",
"   XXXXXX$$$$&&&&&&&&&&&&$$$$$$$$$$$$$$$$$$$$$$$$$$$$$$$$$$$$$$$$$$$$$$$$$$$$$XXXXXXXX              ",
"   XXXXXX$$$&&&&&&&&&&&&&$$$$$$$$$$$$$$$$$$$$$$$$$$$$$$$$$$$$$$$$$$$$$$$$$$$$XXXXXXXX               ",
"   XXXXXXX$$&&&&&&&&&&&&&$$$$$$$$$$$$$$$$$$$$$$$$$$$$$$$$$$$$$$$$$$$$$$$$$$$XXXXXXX                 ",
"   XXXXXXX$$&&&&&&&&&&&&&$$$$$$$$$$$$$$$$$$$$$$$$$$$$$$$$$$$$$$$$$$$$$$$$$XXXXXXXX                  ",
"    XXXXXXX&&&&&&&&&&&&&$$$$$$$$$$$XXXXX$$$$$$$$$$$$$$$$$$$$$$$$$$$$$$$$$XXXXXXXX                   ",
"     XXXXXX&&&&&&&&&&&&$$$$$$$$$$XXXXXXXX$$$$$$$$$$$$$$$$$$$$$$$$$$$$$$$XXXXXXXX                    ",
"      XXXXX&&&&&&&&&$$$$$$$$$$XXXXXXXXXXX$$$$$$$$$$$$$$$$$$$$$$XXX$$$$$XXXXXXXX                     ",
"      XXXXXX&&&$$$$$$$$$$$$XXXXXXXXXXXXXX%%%%%%%%%%%%%%%%%%%%%XXXXX$$$XXXXXXX                       ",
"       XXXXXXXX$$$$$$$$$XXXXXXXXXXXXX%%%%%%%%%%%%%%%%%%%%%%%%%%XXXXXXXXXXXXX                        ",
"       XXXXXXXXXXXXXXXXXXXXXXXXXXXX%%%%%%%%%%%%%%%%%%%%%%%%%%%%XXXXXXXXXXXX                         ",
"        XXXXXXXXXXXXXXXXXXXXXXXXX%%%%%%%%%%%%%%%%%%%%%%%%%%%%%%%XXXXXXXXXX                          ",
"        XXXXXXXXXXXXXXXXXXXX%%%%%%%%%%%%%%%%%%%%%%%%%%%%%%%%%%%%%%XXXXXXX                           ",
"         XXXXXXXXXXXXXXXXXX%%%%%%%%%%%%%%%%%%%%%%%%%%%%%%%%%%%%%%%%XXXXXX                           ",
"             XXXXXXXXXXXXX%%%%%%%%%%%%%%%%%%%%%%%%%%%%%%%%%%%%%%%%%%XXXXXX                          ",
"                     XXXX%%%%%%%%%%%%%%%%%%%%%%%%%%%%%%%%%%%%%%%%%%%%XXXXXXX                        ",
"                     XXXX%%%%%%%%%%%%%%%%%%%%%%%%%%%%%%%%%%%%%%%%%%%%%XXXXXXX                       ",
"                     XXXX%%%%%%%%%%%%%%%%%%%%%%%%%%%%%%%%%%%%%%%%%%%%%%XXXXXXX                      ",
"                     XXXX%%%%%%%%%%%%%%%%%%%%%%%%%%%%%%%%%%%%%%%%%%%%%%%XXXXXXX                     ",
"                     XXXXX%%%%%%%%%%%%%%%%%%%%%%%%%%%%%%%%%%%%%%%%%%%%%%%XXXXXXX                    ",
"                     XXXXX%%%%%%%%%%%%%%%%%%%%%%%%%%%%%%%%%%%%%%%%%%%%%%%%%XXXXXX                   ",
"                     XXXXX%%%%%%%%%%%%%%%%%%%%%%%%%%%%%%%%%%%%%%%%%%%%%%%%%%XXXXXX                  ",
"                     XXXXX%%%%%%%%%%%%%%%%%%%%%%%%%%%%%%%%%%%%%%%%%%%%%%%%%%XXXXXXX                 ",
"                     XXXXX%%%%%%%%%%%%%%%%%%%%%%%%%%%%%%%%%%%%%%%%%%%%%%%%%%%XXXXXXX                ",
"                     XXXXX%%%%%%%%%%%%%%%%%%%%%%%%%%%%%%%%%%%XXXX%%%%%%%%%%%%XXXXXXXX               ",
"                     XXXXX%%%%%%%%%%%%%%%%%%%%%%%%%%%%%%%%%%XXXXXX%%%%%%%%%%%XXXXXXXX               ",
"                     XXXXX%%%%%%%%%%X%%%%%%%%%%%%%%%%%%%%...XXXXXXX%%%%%%%%%XXXXXXXXX               ",
"                     XXXXXX%%%%%%%%%XX%%%%%%%%%%%%%%%%%%....XXXXXXX%%%%%%%XXXXXXXXXXX               ",
"                      XXXXXX%%%%%%%%XXXX....%%%XXXXXX.......XXXXXXXX%%%%%XXXXXXXXXXXX               ",
"                       XXXXXXXX%%%%XXXX........XXXXXX........XXXXXXXX%%XXXXXXXXXXXXX                ",
"                        XXXXXXXXXXXXXXX........XXXXXX........XXXXXXXXXXXXXXXXXXXXXX                 ",
"                         XXXXXXXXXXXXXX........XXXXXX.........XXXXXXXXXXXXXXXXXXX                   ",
"                          XXXXXXXXXXXXX........XXXXXX.........XXXXXXXXXXXXXXXXX                     ",
"                            XXXXXXXXXXX........XXXXXX.........XXXXXXXXXXXXXXXX                      ",
"                                  XXXXX........XXXXXX.........XXXXXXXXXXXXXXX                       ",
"                                  XXXX.........XXXXXX.........XXXXXXXXXXXXXX                        ",
"                                  XXXX.........XXXXXX.........XXXXXXXXXXXX                          ",
"                                  XXXX.........XXXXXX.........XXXX XXXXX                            ",
"                                  XXXX.........XXXXXX.........XXXX                                  ",
"                                 XXXXXX.......XXXXXXXX.......XXXXX                                  ",
"                                 XXXXXXXX....XXXXXXXXXX.....XXXXXX                                  ",
"                                 XXXXXXXXXXXXXXXXXXXXXXXXXXXXXXXXX                                  "
};
