/* XPM */
static char *_0b511d58f744014d8c09428d7db1712650sQK9CcbwQBgv4[] = {
/* columns rows colors chars-per-pixel */
"100 100 11 1 ",
"  c None",
". c black",
"X c #060606",
"o c gray13",
"O c gray20",
"+ c gray24",
"@ c #3F3F3F",
"# c #434343",
"$ c gray48",
"% c #CF4E00",
"& c #CA9454",
/* pixels */
"                                           &&&&&&&&&&&&&&&&&&&                                      ",
"                                         &&&&&&&&&&&&&&&&&&&&&&&                                    ",
"                                       &&&&&&&&&&&&&&&&&&&&&&&&&&&&                                 ",
"                                     &&&&&&&&&&&&&&&&&&&&&&&&&&&&&&&                                ",
"                                   &&&&&&&&&&&&&&&&&&&&&&&&&&&&&&&&&&&                              ",
"                                 &&&&&&&&&&&&&&&&&&&&&&&&&&&&&&&&&&&&&&&                            ",
"                              &&&&&&&&&&&&&&&&&&&&&&&&&&&&&&&&&&&&&&&&&&&&                          ",
"                            &&&&&&&&&&&&&&&&&&&&&&&&&&&&&&&&&&&&&&&&&&&&&&&&                        ",
"                          &&&&&&&&&&&&&&&&&&&&&&&&&&&&&&&&&&&&&&&&&&&&&&&&&&&&                      ",
"                        &&&&&&&&&&&&&&&&&&&&&&&&&&&&&&&&&&&&&&&&&&&&&&&&&&&&&&&&&                   ",
"                      &&&&&&&&&&&&&&&&&&&&&&&&&&&&&&&&&&&&&&&&&&&&&&&&&&&&&&&&&&&&                  ",
"                    &&&&&&&&&&&&&&&&&&&&&&&&&&&&&&&&&&&&&&&&&&&&&&&&&&&&&&&&&&&&&&&&                ",
"                 &&&&&&&&&&&&&&&&&&&&&&&&&&&&&&&&&&&&&&&&&&&&&&&&&&&&&&&&&&&&&&&&&&&&&              ",
"               &&&&&&&&&&&&&&&&&&&&&&&&&&&&&&&&&&&&&&&&&&&&&&&&&&&&&&&&&&&&&&&&&&&&&&&&&            ",
"             &&&&&&&&&&&&&&&&&&&&&&&&&&&&&&&&&&&&&&&&&&&&&&&&&&&&&&&&&&&&&&&&&&&&&&&&&&&&&          ",
"           &&&&&&&&&&&&&&&&&&&&&&&&&&&&&&&&&&&&&&&&&&&&&&&&&&&&&&&&&&&&&&&&&&&&&&&&&&&&&&&&&        ",
"          &&&&&&&&&&&&&&&&&&&&&&&&&&&&&&&&&&&&&&&&&&&&&&&&&&&&&&&&&&&&&&&&&&&&&&&&&&&&&&&&&&&&&     ",
"        &&&&&&&&&&&&&&&&&&&&&&&&&&&&&&&&&&&&&&&&&&&&&&&&&&&&&&&&&&&&&&&&&&&&&&&&&&&&&&&&&&&&&&&&    ",
"     &&&&&&&&&&&&&&&&&&&&&&&&&&&&&&&&&&&&&&&&&&&&&&&&&&&&&&&&&&&&&&&&&&&&&&&&&&&&&&&&&&&&&&&&&&&&   ",
"   &&&&&&&&&&&&&&&&&&&&&&&&&&&&&&&&&&&&&&&&&&&&&&&&&&&&&&&&&&&&&&&&&&&&&&&&&&&&&&&&&&&&&&&&&&&&&&&  ",
"  &&&&&&&&&&&&&&&&&&&&&&&&&&&&&&&&&&&&&&&&&&&&&&&&&&&&&&&&&&&&&&&&&&&&&&&&&&&&&&&&&&&&&&&&&&&&&&&&  ",
" &&&&&&&&&&&&&&&&&&&&&&&&&&&&&&&&&&&&&&&&&&&&&&&&&&&&&&&&&&&&&&&&&&&&&&&&&&&&&&&&&&&&&&&&&&&&&&&&&& ",
" &&&&&&&&&&&&&&&&&&&&&&&&&&&&&&&&&&&&&&&&&&&&&&&&&&&&&&&&&&&&&&&&&&&&&&&&&&&&&&&&&&&&&&&&&&&&&&&&&& ",
" &&&&&&&&&&&&&&&&&&&&&&&&&&&&&&&&&&&&&&&&&&&&&&&&&&&&&&&&&&&&&&&&&&&&&&&&&&&&&&&&&&&&&&&&&&&&&&&&&& ",
" &&&&&&&&&&&&&&&&&&&&&&&&&&&&&&&&&&&&&&&&&&&&&&&&&&&&&&&&&&&&&&&&&&&&&&&&&&&&&&&&&&&&&&&&&&&&&&&&&& ",
"  &&&&&&&&&&&&&&&&&&&&&&&&&&&&&&&&&&&&&&&&&&&&&&&&&&&&&&&&&&&&&&&&&&&&&&&&&&&&&&&&&&&&&&&&&&&&&&&&  ",
"         ooooo$$$$$$$$$$$$$$$$$$$$$$$$$$$$$$$$$$$$$$$$$$$$$$$$$$$$$$$$$$$$$$$$$$$$$$$$+###+O        ",
"         XXXXX$$$$$$$$$$$$$$$$$$$$$$$$$$$$$$$$$$$$$$$$$$$$$$$$$$$$$$$$$$$$$$$$$$$$$$$$$XXXXX        ",
"         XXXXX$$$$$$$$$$$$$$$$$$$$$$$$$$$$$$$$$$$$$$$$$$$$$$$$$$$$$$$$$$$$$$$$$$$$$$$$$XXXXX        ",
"         XXXXX$$$$$$$$$$$$$$$$$$$$$$$$$$$$$$$$$$$$$$$$$$$$$$$$$$$$$$$$$$$$$$$$$$$$$$$$$XXXXX        ",
"         XXXXX$$$$$$$$$$$$$$$$$$$$$$$$$$$$$$$$$$$$$$$$$$$$$$$$$$$$$$$$$$$$$$$$$$$$$$$$$XXXXX        ",
"         XXXXX$$$$$$$$$$$$$$$$$$$$$$$$$$$$$$$$$$$$$$$$$$$$$$$$$$$$$$$$$$$$$$$$$$$$$$$$$XXXXX        ",
"         XXXXX$$$$$$$$$$$$$$$$$$$$$$$$$$$$$$$$$$$$$$$$$$$$$$$$$$$$$$$$$$$$$$$$$$$$$$$$$XXXXX        ",
"         XXXXX$$$$$$$$$$$$$$$$$$$$$$$$$$$$$$$$$$$$$$$$$$$$$$$$$$$$$$$$$$$$$$$$$$$$$$$$$XXXXX        ",
"         XXXXX$$$$$$$$$$$$$$$$$$$$$$$$$$$$$$$$$$$$$$$$$$$$$$$$$$$$$$$$$$$$$$$$$$$$$$$$XXXXXX        ",
"         XXXXX$$$$$$$$$$$$$$$$$$$$$$$$$$$$$$$$$$$$$$$$$$$$$$$$$$$$$$$$$$$$$$$$$$$$$$$$XXXXXX        ",
"         XXXXX$$$$$$$$$$$$$$$$$$$$$$$$$$$$$$$$$$$$$$$$$$$$$$$$$$$$$$$$$$$$$$$$$$$$$$$$XXXXX         ",
"         XXXXX$$$$$$$$$$$$$$$$$$$$$$$$$$$$$$$$$$$$$$$$$$$$$$$$$$$$$$$$$$$$$$$$$$$$$$$$XXXXX         ",
"         XXXXX$$$$$$$$$$$$$$$$$$$$$$$$$$$$$$$$$$$$$$$$$$$$$$$$$$$$$XXXXXXX$$$$$$$$$$$$XXXXX         ",
"         XXXXX$$$$$$$$$$$$$$$$$$$$$$$$$$$$$$$$$$$$$$$$$$$$$$$$$$$XXXXXXXXXX$$$$$$$$$$$XXXXX         ",
"         XXXXX$$$$$$$$$$$$$$$$$$$$$$$$$$$$$$$$$$$$$$$$$$$$$$$$$XXXXXXXXXXXX$$$$$$$$$$$XXXXX         ",
"         XXXXX$$$$$$$$$$$$$$$$$$$$$$$$$$$$$$$$$$$$$$$$$$$$$$$$$XXXX&&&&&&XXX$$$$$$$$$$XXXXX         ",
"         XXXXX$$$$$$$$$$$$$$$$$$$$$$$$$$$$$$$$$$$$$$$$$$$$$$$$XXXX&&&&&&&&XX$$$$$$$$$$XXXXX         ",
"         XXXXX$$$$$$$$$$$$$$$$$$$$$$$$$$$$$$$$$$$$$$$$$$$$$$$$XXXX&&&&&&&&XXX$$$$$$$$$XXXXX         ",
"         XXXXX$$$$$$$$$$$$$$$$$$$$$$$$$$$$$$$$$$$$$$$$$$$$$$$$XXXX&&&&&&&&XXX$$$$$$$$$XXXXX         ",
"         XXXXX$$$$$$$$$$$$$$$$$$$$$$$$$$$$$$$$$$$$$$$$$$$$$$$$XXXX&&&&&&&&XXX$$$$$$$$$XXXXX         ",
"         XXXXX$$$$$$$$$$$$$$$$$$$$$$$$$$$$$$$$$$$$$$$$$$$$$$$$$XXX&&&&&&&&XXX$$$$$$$$XXXXXX         ",
"         XXXXX$$$$$$$$$$$$$$$$$$$$$$$$$$$$$$$$$$$$$$$$$$$$$$$$$XXX&&&&&&&XXX$$$$$$$$$XXXXXX         ",
"         XXXXX$$$$$$$$$$$$$$$$$$$$$$$$$$$$$$$$$$$$$$$$$$$$$$$$$$XXX&&&&&XXXX$$$$$$$$$XXXXXXX        ",
"         XXXXX$$$$$$$$$$$$$$$$$$$$$$$$$$$$$$$$$$$$$$$$$$$$$$$$$$XXXXXXXXXXX$$$$$$$$$$XXXXXXXX       ",
"         XXXXX$$$$$$$$$$$$$$$$$$$$$$$$$$$$$$$$$$$$$$$$$$$$$$$$$$$XXXXXXXXX$$$$$$$$$$$$XXXXXXXX      ",
"         XXXXX$$$$$$$$$$$$$$$$$$$$$$$$$$$$$$$$$$$$$$$$$$$$$$$$$$$$$XXXXX$$$$$$$$$$$$$$$$XXXXXX      ",
"         XXXXX$$$$$$$$$$$$$$$$$$$$$$$$$$$$$$$$$$$$$$$$$$$$$$$$$$$$$$$$$$$$$$$$$$$$$$$$$$$XXXXXX     ",
"         XXXXXX$$$$$$$$$$$$$$$$$$$$$$$$$$$$$$$$$$$$$$$$$$$$$$$$$$$$$$$$$$$$$$$$$$$$$$$$$$$XXXXXX    ",
"         XXXXXXXX$$$$$$$$$$$$$$$$$$$$$$$$$$$$$$$$$$$$$$$$$$$$$$$$$$$$$$$$$$$$$$$$$$$$$$$$$XXXXXX    ",
"          XXXXXXXX$$$$$$$$$$$$$$$$$$$$$$$$$$$$$$$$$$$$$$$$$$$$$$$$$$$$$$$$$$$$$$$$$$$$$$$$$XXXXX    ",
"           XXXXXXXX$$$$$$$$$$$$$$$$$$$$$$$$$$$$$$$$$$$$$$$$$$$$$$$$$$$$$$$$$$$$&&&$$$$$$$$$XXXXX    ",
"            XXXXXXXX$$$$$$$$$$$$$$$$$$$$$$$$$$$$$$$$$$$$$$$$$$$$$$$$$$$$$$$$&&&&&&&$$$$$$$$XXXXX    ",
"             XXXXXXXX$$$$$$$$$$$$$$$$$$$$$$$$$$$$$$$$$$$$$$$$$$$$$$$$$$$$$$$&&&&&&&&&&$$$$$XXXXXX   ",
"              XXXXXXXXX$$$$$$$$$$$$$$$$$$$$$$$$$$$$$$$$$$$$$$$$$$$$$$$$$$$$&&&&&&&&&&&&$$$$XXXXXX   ",
"               XXXXXXXXX$$$$$$$$$$$$$$$$$$$$$$$$$$$$$$$$$$$$$$$$$$$$$$$$$$$&&&&&&&&&&&&&$$$XXXXXX   ",
"                 XXXXXXXX$$$$$$$$$$$$$$$$$$$$$$$$$$$$$$$$$$$$$$$$$$$$$$$$$$&&&&&&&&&&&&&&$XXXXXXX   ",
"                  XXXXXXXX$$$$$$$$$$$$$$$$$$$$$$$$$$$$$$$$$$$$$$$$$$$$$$$$$&&&&&&&&&&&&&&$XXXXXXX   ",
"                   XXXXXXXX$$$$$$$$$$$$$$$$$$$$$$$$$$$$$$$$$XXXXX$$$$$$$$$$$&&&&&&&&&&&&&XXXXXXX    ",
"                    XXXXXXXX$$$$$$$$$$$$$$$$$$$$$$$$$$$$$$$$XXXXXXXX$$$$$$$$$&&&&&&&&&&&&XXXXXX     ",
"                     XXXXXXXXX$$$$XXX$$$$$$$$$$$$$$$$$$$$$$$XXXXXXXXXX$$$$$$$$$$&&&&&&&&&XXXXX      ",
"                       XXXXXXXX$XXXXXX%%%%%%%%%%%%%%%%%%%%%XXXXXXXXXXXXXX$$$$$$$$&&&&&&&XXXXXX      ",
"                        XXXXXXXXXXXXX%%%%%%%%%%%%%%%%%%%%%%%%%%XXXXXXXXXXXX$$$$$$$$$$XXXXXXXX       ",
"                         XXXXXXXXXXXX%%%%%%%%%%%%%%%%%%%%%%%%%%%%XXXXXXXXXXXXXXXXXXXXXXXXXXXX       ",
"                          XXXXXXXXXX%%%%%%%%%%%%%%%%%%%%%%%%%%%%%%%XXXXXXXXXXXXXXXXXXXXXXXXX        ",
"                           XXXXXXX%%%%%%%%%%%%%%%%%%%%%%%%%%%%%%%%%%%%%%XXXXXXXXXXXXXXXXXXXX        ",
"                           XXXXXX%%%%%%%%%%%%%%%%%%%%%%%%%%%%%%%%%%%%%%%%XXXXXXXXXXXXXXXXXX         ",
"                          XXXXXX%%%%%%%%%%%%%%%%%%%%%%%%%%%%%%%%%%%%%%%%%%XXXXXXXXXXXXX             ",
"                        XXXXXXX%%%%%%%%%%%%%%%%%%%%%%%%%%%%%%%%%%%%%%%%%%%%XXXX                     ",
"                       XXXXXXX%%%%%%%%%%%%%%%%%%%%%%%%%%%%%%%%%%%%%%%%%%%%%XXXX                     ",
"                      XXXXXXX%%%%%%%%%%%%%%%%%%%%%%%%%%%%%%%%%%%%%%%%%%%%%%XXXX                     ",
"                     XXXXXXX%%%%%%%%%%%%%%%%%%%%%%%%%%%%%%%%%%%%%%%%%%%%%%%XXXX                     ",
"                    XXXXXXX%%%%%%%%%%%%%%%%%%%%%%%%%%%%%%%%%%%%%%%%%%%%%%%XXXXX                     ",
"                   XXXXXX%%%%%%%%%%%%%%%%%%%%%%%%%%%%%%%%%%%%%%%%%%%%%%%%%XXXXX                     ",
"                  XXXXXX%%%%%%%%%%%%%%%%%%%%%%%%%%%%%%%%%%%%%%%%%%%%%%%%%%XXXXX                     ",
"                 XXXXXXX%%%%%%%%%%%%%%%%%%%%%%%%%%%%%%%%%%%%%%%%%%%%%%%%%%XXXXX                     ",
"                XXXXXXX%%%%%%%%%%%%%%%%%%%%%%%%%%%%%%%%%%%%%%%%%%%%%%%%%%%XXXXX                     ",
"               XXXXXXXX%%%%%%%%%%%%XXXX%%%%%%%%%%%%%%%%%%%%%%%%%%%%%%%%%%%XXXXX                     ",
"               XXXXXXXX%%%%%%%%%%%XXXXXX%%%%%%%%%%%%%%%%%%%%%%%%%%%%%%%%%%XXXXX                     ",
"               XXXXXXXXX%%%%%%%%%XXXXXXX...%%%%%%%%%%%%%%%%%%%%X%%%%%%%%%%XXXXX                     ",
"               XXXXXXXXXXX%%%%%%%XXXXXXX....%%%%%%%%%%%%%%%%%%XX%%%%%%%%%XXXXXX                     ",
"               XXXXXXXXXXXX%%%%%XXXXXXXX.......XXXXXX%%%....XXXX%%%%%%%%XXXXXX                      ",
"                XXXXXXXXXXXXX%%XXXXXXXX........XXXXXX........XXXX%%%%XXXXXXXX                       ",
"                 XXXXXXXXXXXXXXXXXXXXXX........XXXXXX........XXXXXXXXXXXXXXX                        ",
"                   XXXXXXXXXXXXXXXXXXX.........XXXXXX........XXXXXXXXXXXXXX                         ",
"                     XXXXXXXXXXXXXXXXX.........XXXXXX........XXXXXXXXXXXXX                          ",
"                      XXXXXXXXXXXXXXXX.........XXXXXX........XXXXXXXXXXX                            ",
"                       XXXXXXXXXXXXXXX.........XXXXXX........XXXXX                                  ",
"                        XXXXXXXXXXXXXX.........XXXXXX.........XXXX                                  ",
"                          XXXXXXXXXXXX.........XXXXXX.........XXXX                                  ",
"                            XXXXX XXXX.........XXXXXX.........XXXX                                  ",
"                                  XXXX.........XXXXXX.........XXXX                                  ",
"                                  XXXXX.......XXXXXXXX.......XXXXXX                                 ",
"                                  XXXXXX.....XXXXXXXXXX....XXXXXXXX                                 ",
"                                  XXXXXXXXXXXXXXXXXXXXXXXXXXXXXXXXX                                 "
};
