/* XPM */
static char *ff87c322b3c94a118f6145c3bcd72fb2LtFz6o09aWhGMmxE[] = {
/* columns rows colors chars-per-pixel */
"100 100 11 1 ",
"  c None",
". c #021831",
"X c #061D36",
"o c #081F3B",
"O c #09203C",
"+ c #04356E",
"@ c #05366F",
"# c #06376F",
"$ c #073770",
"% c #083870",
"& c #093971",
/* pixels */
"                                                                                                    ",
"                                                                                                    ",
"                                                                                                    ",
"                                                                                                    ",
"                                                                                                    ",
"                                                                                                    ",
"                                                                                                    ",
"                                                                                                    ",
"                                                 ..............                                     ",
"                                               ..................                                   ",
"                                             .......................                                ",
"                                          ............................                              ",
"                                         ..............................                             ",
"                                         ..........+++$++++++..........                             ",
"                                        .........++++++++++++++.........                            ",
"                                       ........++&+...........++++.......                           ",
"                                      .......++++..............++++.......                          ",
"                                      ......++++.................+++......                          ",
"                                     ......+++$...................+++......                         ",
"                                     ......++++....................++......                         ",
"                                     .....+++#.......+++++++.......+++.....                         ",
"                                     .....++++......+++++++++......+++.....                         ",
"                                     .....++++.....+++++++++++.....+++.....                         ",
"                                     .....++++.....+++++++++++.....+++.....                         ",
"                                     .....++++.....+++++++++++.....+++.....                         ",
"                                     .....++++......+++++++++......+++.....                         ",
"                                     ......++&.......+++++++.......++......                         ",
"                                     ......++$+....................+.......                         ",
"                                      ......+++...................++......                          ",
"                                      .......++&.................++.......                          ",
"                                       .......++&..............++........                           ",
"                                        .......XO++...........+.........                            ",
"                                         ........XO++++++++++..........                             ",
"                                         ...........XXX...............                              ",
"                                          ...........................                               ",
"                                            .......................                                 ",
"                                               ..................                                   ",
"                                                .................                                   ",
"                                                .....+++++++.....                                   ",
"                                                .....+++++++.....                                   ",
"                                                .....+++++++.....                                   ",
"                                                .....+++++++.....                                   ",
"                                                .....+++++++.....                                   ",
"                                                .....+++++++.....                                   ",
"                                                .....+++++++.....                                   ",
"                                                .....+++++++.....                                   ",
"                                                .....+++++++.....                                   ",
"                                                .....+++++++.....                                   ",
"                                                .....+++++++.....                                   ",
"                                                .....+++++++.....                                   ",
"                                                .....+++++++.....                                   ",
"                                                .....+++++++.....                                   ",
"                                                .....+++++++.....                                   ",
"                                            ... .....+++++++.....                                   ",
"                                           ..........+++++++.....                                   ",
"                                           ..........+++++++.....                                   ",
"                                           ..........+++++++.....                                   ",
"                                           .........++++++++.....                                   ",
"                                           ........+++++++++.....                                   ",
"                                           .....++++++++++++.....                                   ",
"                                           .....++++++++++++.....                                   ",
"                                           .....++++++++++++.....                                   ",
"                                           .........++++++++.....                                   ",
"                                           ..........+++++++.....                                   ",
"                                           ..........+++++++.....                                   ",
"                                           ..........+++++++.....                                   ",
"                                            .........+++++++.....                                   ",
"                                                .....+++++++.....                                   ",
"                                                .....+++++++.....                                   ",
"                                                .....+++++++.....                                   ",
"                                                .....+++++++.....                                   ",
"                                       ..............+++++++.....                                   ",
"                                      ...............+++++++.....                                   ",
"                                      ...............+++++++.....                                   ",
"                                      ..............++++++++.....                                   ",
"                                      .............+++++++++.....                                   ",
"                                      .....+++++++++++++++++.....                                   ",
"                                      .....+++++++++++++++++.....                                   ",
"                                      .....+++++++++++++++++.....                                   ",
"                                      .....+++++++++++++++++.....                                   ",
"                                      .....+++++++++++++++++.....                                   ",
"                                      ..............++++++++.....                                   ",
"                                      ...............+++++++.....                                   ",
"                                      ...............+++++++.....                                   ",
"                                      ...............+++++++.....                                   ",
"                                       ..............+++++++.....                                   ",
"                                                .....+++++++.....                                   ",
"                                                .................                                   ",
"                                                .................                                   ",
"                                                .................                                   ",
"                                                .................                                   ",
"                                                 ................                                   ",
"                                                             ...                                    ",
"                                                                                                    ",
"                                                                                                    ",
"                                                                                                    ",
"                                                                                                    ",
"                                                                                                    ",
"                                                                                                    ",
"                                                                                                    "
};
